<?xml version="1.0" encoding="UTF-8"?>
<!DOCTYPE svg PUBLIC "-//W3C//DTD SVG 1.1//EN" "http://www.w3.org/Graphics/SVG/1.1/DTD/svg11.dtd">
<!-- Creator: CorelDRAW X7 -->
<svg xmlns="http://www.w3.org/2000/svg" xml:space="preserve" width="215.9mm" height="279.4mm" version="1.1" style="shape-rendering:geometricPrecision; text-rendering:geometricPrecision; image-rendering:optimizeQuality; fill-rule:evenodd; clip-rule:evenodd"
viewBox="0 0 21590 27940"
 xmlns:xlink="http://www.w3.org/1999/xlink">
 <defs>
  <style type="text/css">
   <![CDATA[
    .fil0 {fill:#EF2C2A}
    .fil1 {fill:#EF2C2A;fill-rule:nonzero}
   ]]>
  </style>
 </defs>
 <g id="Layer_x0020_1">
  <metadata id="CorelCorpID_0Corel-Layer"/>
  <path class="fil0" d="M10530 13651c-17,16 -23,27 -38,38 -19,20 -23,24 -40,43 -13,19 -28,36 -48,65 -24,41 -30,55 -58,84 -12,13 -24,21 -33,23 -19,2 -29,-11 -34,-17 -15,-22 -21,-42 -15,-65 4,-10 5,-13 19,-27 14,-7 30,-28 30,-28 15,-23 12,-17 30,-45 24,-45 46,-86 65,-163 4,-19 4,-33 0,-37 -13,-5 -15,-4 -29,3 -4,4 -12,11 -16,16 -9,11 -12,13 -22,22 -3,3 -28,37 -34,41l-79 89c-25,27 -27,31 -37,42 0,7 5,17 -3,66 -2,12 2,12 3,25 0,37 -5,75 -4,112 2,54 8,67 34,86 48,18 46,5 107,9 39,2 80,-3 118,2l90 -2c79,-5 129,-3 207,6 57,2 90,3 131,2 45,0 90,0 134,0 43,1 85,4 129,4 50,0 168,8 212,-20l13 -11c21,-21 22,-86 20,-116 -1,-19 1,-46 -1,-65 -5,-38 -6,-155 -6,-194 0,-38 -7,-159 -1,-192 8,-40 4,-80 8,-126 1,-9 2,-21 2,-32 0,-18 -4,-12 -3,-27 1,-21 2,-45 2,-64 0,-23 -3,-41 -3,-63 -1,-44 -2,-87 -3,-129 -1,-22 -2,-42 -3,-63l-10 -59c-4,-15 -19,-30 -35,-31 -17,-1 -48,-4 -60,-1 -20,5 -106,0 -132,-1 -14,-3 -238,6 -279,7 -26,0 -11,3 -49,3 -19,1 -93,0 -104,7l-40 0c-42,-2 -74,1 -116,-1 -37,-2 -85,-7 -118,0 -28,5 -59,5 -88,6 -12,1 -20,-2 -31,-2 -22,0 -18,3 -49,7 -25,-2 -32,17 -39,24 -2,11 -10,21 -14,32 -17,44 -10,44 -19,78 -4,18 3,26 4,43 2,63 -4,139 -3,190l1 192c0,31 2,62 2,94 0,15 -1,21 1,82 3,-4 42,-47 42,-48 4,-7 49,-55 59,-66 60,-63 76,-82 119,-136 13,-16 17,-25 25,-39 6,-20 6,-23 15,-30 9,-8 19,-9 27,0 15,18 17,27 23,39 12,32 15,50 3,65 -13,7 -24,15 -32,20 -14,14 -25,25 -37,36 18,-3 20,-2 33,0 18,6 19,13 23,18 9,16 10,19 -13,79 -7,25 -7,30 -23,86 33,-34 63,-64 103,-100 42,-38 73,-66 121,-107 21,-14 40,-37 64,-36 19,0 35,5 46,8 49,14 57,22 62,32 3,5 -1,9 -11,29 -7,11 -7,15 -10,32 -1,33 -1,43 15,110 22,89 48,128 81,160 56,54 80,61 98,74 34,21 65,34 89,46 24,9 43,19 68,28 46,16 79,29 126,39 -36,-1 -72,0 -131,-6 -61,-6 -79,-3 -161,-27 -47,-16 -62,-21 -118,-58 -29,-22 -47,-42 -63,-60 -8,-11 -12,-16 -20,-27 -12,-17 -15,-22 -27,-44 -14,-29 -24,-49 -36,-83 -9,-30 -15,-76 -20,-113 0,-4 -2,-33 -6,-38 -15,-13 -19,-9 -29,-5 -12,7 -13,7 -29,20 -16,14 -22,19 -58,54 -37,36 -36,39 -84,86zm530 -62c1,0 1,0 2,0 0,0 1,0 2,0 6,-1 27,-4 38,-6 18,-2 34,-4 54,-6 15,-1 26,-3 38,-3 21,-1 38,-2 56,-1 9,2 9,8 10,11 2,8 1,10 1,21 0,16 -1,19 -2,34 -2,18 -4,25 -8,45 -1,8 -7,16 -13,23 -1,3 -28,-6 -50,-13 -2,-1 -3,0 -3,4 0,3 3,6 4,7 5,8 6,9 10,15 6,9 8,11 10,14 6,9 8,13 14,23 4,8 4,10 11,12 6,1 7,0 11,-1 4,-2 33,-21 42,-38 7,-11 13,-24 17,-48 1,-8 2,-15 4,-28 4,-29 -2,-57 21,-77 -1,-8 -18,-18 -30,-25 -11,-6 -22,-12 -32,-14 -9,0 -13,1 -29,3 -29,3 -33,3 -62,6 -49,4 -50,4 -86,8 -13,2 -33,6 -44,8 -2,0 -4,0 -5,-2 -2,-1 -1,-10 0,-22 10,5 18,6 24,5 34,-3 57,-5 87,-10 12,-3 24,-3 25,-7 0,-2 1,-12 -8,-18 -3,-3 -9,-6 -18,-7 -5,0 -11,-1 -21,0 -13,2 -30,6 -38,7 -10,2 -11,2 -24,4 -11,1 -18,2 -27,4l1 -21c5,6 58,-11 92,-12 12,0 7,0 13,0 5,6 7,6 10,7 7,-1 8,0 17,-3 3,-1 6,-2 9,-5 8,-12 19,-35 26,-48 6,-12 0,0 9,-21 3,-6 5,-11 11,-17 4,-3 9,-5 9,-8 1,-7 -15,-17 -35,-24 -13,-6 -26,-10 -30,-9 -1,-1 -13,4 -27,7 -17,5 -38,9 -48,10 -14,3 -22,4 -36,6 5,-3 11,-6 18,-11l19 -12c18,-12 21,-14 40,-26 6,-4 29,-6 20,-18 -8,-8 -17,-13 -25,-17 -16,-5 -35,-11 -43,-8 -2,1 -6,3 -2,16 1,2 2,4 2,6 -1,6 -6,14 -12,23 -6,10 -13,19 -21,29 -7,8 -12,13 -20,20 -6,-3 -7,-4 -12,-5 -7,-2 -12,-4 -24,-4 -4,1 -9,0 -14,4 -1,1 -2,3 -1,6 1,5 5,7 7,11 3,5 5,12 5,21 0,17 0,17 0,50 -1,11 -1,26 -1,36 -1,52 -7,47 -5,70 1,13 2,16 10,22 6,13 20,12 22,11 5,-3 6,-4 22,-10 -1,1 -1,3 -1,4 0,2 1,2 1,3 0,1 1,2 1,3 1,0 1,1 1,1 2,2 3,4 4,7 2,13 2,28 3,60 -9,2 -35,7 -48,10 3,-7 5,-14 7,-20 2,-7 3,-14 1,-16 -3,-4 -10,-8 -18,-11 -13,-8 -25,-11 -31,-10 -4,1 -3,6 -3,8 0,0 0,1 1,2 3,6 5,12 7,21 0,22 -7,31 -12,34 -5,13 1,21 6,29 9,10 16,14 20,14 19,-10 21,-11 32,-16 36,-13 37,-13 56,-17 12,-3 45,-9 60,-12 1,6 0,9 6,15 7,11 13,14 24,5 8,-5 9,-10 13,-32 2,-10 2,-12 4,-24 1,-5 3,-9 6,-13 1,-3 2,-5 2,-7 0,-5 -5,-9 -13,-11 -18,-8 -33,-12 -43,-10 -2,1 -3,3 -3,5 0,1 0,3 1,5 2,2 3,3 3,4 3,4 4,8 4,16 0,9 0,14 0,19 -8,0 -32,4 -47,6 2,-16 7,-45 9,-51 1,-3 1,-6 0,-7 -6,-7 -28,-16 -40,-18zm-15 -183l-2 22c26,-5 28,-6 58,-14 8,-2 13,-1 21,1 9,2 14,7 16,13 0,3 1,8 -2,9 -13,4 -47,9 -72,12 -9,2 -13,2 -21,-1 0,10 -1,14 -1,24 17,-2 26,-4 66,-11 8,-2 13,-3 23,-6 3,-1 13,-2 21,5 3,-11 5,-20 8,-31 1,-8 3,-17 4,-25 1,-7 1,-11 -2,-13 -5,-3 -13,-2 -21,-1 -21,2 -45,6 -96,16zm85 -356c7,9 10,24 12,33 6,20 8,40 9,57 2,15 3,30 5,46 3,17 6,32 8,41 1,7 9,15 19,18 14,2 15,-5 17,-9 3,-9 2,-13 2,-19 21,-2 32,-4 61,-6 22,-1 24,-2 46,-2 2,0 4,0 6,-2 0,-6 -13,-22 -16,-24 8,-37 11,-55 26,-84 0,0 3,-7 9,-16 5,-6 10,-17 9,-23 -1,-8 -9,-12 -16,-17 -10,-6 0,0 -20,-11 -17,-8 -20,-8 -28,-9 -20,0 -16,14 -65,21 -9,1 -20,4 -31,5 -14,-10 -27,-9 -33,-11 -10,-1 -13,-1 -17,0 -5,-10 -21,-18 -31,-23 -8,-5 -19,-12 -23,-11 -7,0 -14,5 -22,7 -9,3 -15,6 -22,8 6,-20 7,-25 13,-46 4,-21 10,-31 13,-41 11,-9 7,-19 -18,-30 -16,-7 -23,-9 -35,-8 -3,0 -6,4 -3,13 6,5 1,48 -1,58 -9,46 -9,50 -12,62 -31,5 -33,5 -71,10l-13 1c-2,-1 -3,5 10,18 5,3 7,7 20,7 10,1 29,-7 48,-12 -4,15 -6,21 -12,42 -4,11 -5,13 -9,24 -5,16 -11,31 -15,41 -20,45 -27,56 -37,70 -9,13 -19,25 -27,36 -1,2 -4,6 -6,9 -2,3 -5,4 -2,6 1,1 5,-2 11,-6 15,-8 28,-19 38,-28 8,-8 12,-11 17,-18 15,-21 16,-23 29,-43 20,-34 27,-58 39,-89 5,-18 6,-19 13,-39 1,-6 3,-8 4,-14 7,0 8,0 14,-1 6,0 13,0 18,0 6,0 11,3 13,9 1,14 1,33 -4,59 -4,21 -8,38 -13,60 -10,34 -18,46 -25,51 -5,5 -15,2 -23,-1 -9,-3 -16,-6 -17,-5 -1,0 -3,4 2,6 3,4 6,7 8,12 12,18 12,20 17,29 5,9 5,17 13,18 12,-3 35,-16 50,-46 1,-1 12,-30 16,-49 3,-14 6,-30 11,-66 2,-15 4,-31 6,-45 4,-11 12,-20 15,-23zm61 30c1,13 1,19 4,49 1,18 0,42 5,59 3,-1 4,-1 17,-3 8,-1 14,-2 24,-3 8,-1 12,-3 15,-3 1,-4 2,-7 3,-14 1,-10 2,-11 2,-16 2,-13 4,-25 5,-31 2,-16 3,-29 4,-38 0,-4 0,-7 -1,-8 -2,-2 -7,-3 -16,-2 -18,3 -42,11 -62,10zm-641 1093c18,0 48,-6 59,-6l90 -2c28,-4 57,2 84,2 28,-3 114,3 151,-1 28,-3 45,-2 74,-2 20,0 123,-6 142,-10 18,-3 118,1 148,1l70 -6c48,-9 28,-10 55,-23 4,-2 39,-7 53,-25 27,-33 17,-37 19,-57 1,-12 6,-20 6,-33l-2 -260c0,-16 1,-60 -2,-74 -16,-95 -4,-199 -2,-296 1,-26 1,-51 1,-78l-3 -72c0,-23 6,-55 3,-75 -8,-52 1,-49 2,-68 0,-18 -6,-55 -4,-72 6,-43 -2,-69 -7,-108 -1,-14 -4,-17 -4,-33 -1,-53 -5,-36 -14,-73 -1,-6 1,-2 -3,-6 -10,-24 -22,-28 -36,-37 -12,-8 -28,-15 -35,-23 -9,-11 -11,-10 -28,-13 -11,-1 -22,-4 -33,-4 -39,1 -38,1 -73,6 -8,4 -128,10 -145,9 -18,-1 -22,2 -36,3 -11,2 -25,1 -36,2 -34,2 -49,8 -64,6 -27,-3 -52,1 -78,-1 -40,-3 -59,5 -100,6 -22,1 -24,7 -66,3 -10,-2 -23,0 -34,-2 -15,-1 -30,1 -46,0l-102 -1c-21,2 -12,-1 -31,-1 -9,0 -11,-2 -20,-2 -44,-3 -116,-8 -167,-5 -14,2 -18,3 -30,6 -40,11 -22,9 -68,17 -13,2 -25,5 -38,6 -20,7 -37,16 -56,25 -16,7 -19,15 -30,33 -19,34 -3,11 -11,48 -3,19 -8,41 -17,95 -1,27 -2,49 -3,81 -1,28 2,21 0,59 -3,14 -1,27 0,42 1,28 1,57 1,86 1,32 6,37 6,78 1,46 -3,119 -3,168 0,28 1,60 0,87 -2,52 -3,72 1,122 1,10 -4,30 -4,43 15,-1 20,-15 40,-30 53,-43 27,-37 37,-101 3,-14 -1,-179 -1,-205 -1,-23 0,-46 0,-68 0,-24 -6,-42 -5,-66 0,-22 -4,-40 -3,-65 1,-12 3,-23 2,-35 -4,-27 -2,-116 -3,-159 -5,-52 -8,-139 48,-172 21,-15 61,-12 88,-16l66 0c41,-1 104,5 150,4 17,-2 21,2 36,2 14,0 26,-3 40,-2 62,4 123,-2 185,-5 19,0 38,1 57,1 53,-1 230,-5 267,0 21,0 106,-3 122,-1 22,4 40,-3 60,-1 19,2 40,2 61,3 55,2 55,23 64,33 6,6 11,7 10,19 -3,31 0,11 2,27 1,8 -1,8 -1,14 -1,7 0,5 1,12 5,24 2,38 0,60l5 246c0,20 1,47 -1,66 -1,18 3,40 3,60 1,41 2,84 2,125 0,54 -8,239 4,279 10,55 11,100 6,141 -3,12 -5,40 -7,56l-17 49c-14,34 -24,52 -78,57 -101,19 -97,12 -178,11 -56,-1 -114,1 -171,-1 -14,1 -32,0 -47,-1 -31,0 -63,1 -94,0 -11,-2 -28,-1 -39,-1 -27,5 -38,9 -63,11 -30,0 -189,0 -194,3l-95 4c-24,-2 -47,-4 -72,-4 -37,0 -118,-1 -149,-8 -5,-1 -13,-3 -19,-4 -12,-7 -32,-25 -40,-35 -4,-12 -3,-7 -8,-16 -7,-18 -6,-21 -3,-36 1,-9 -2,-12 0,-20 10,-40 1,-10 5,-58 3,-43 2,-63 1,-106 -1,-14 -3,-13 -5,-22 -3,-9 0,-16 -2,-26 -27,24 -47,51 -66,67l2 131c1,28 -4,37 -3,47 1,27 -6,87 41,133 6,5 19,8 26,11 16,6 149,23 163,22 83,0 153,8 236,5z"/>
  <path class="fil0" d="M9752 15210l1 0c0,36 29,65 65,65l0 0c-36,0 -65,30 -65,65l-1 0c0,-35 -29,-65 -65,-65l0 0 0 0 0 0c36,0 65,-29 65,-65z"/>
  <path class="fil0" d="M9752 15080l1 0c0,36 29,65 65,65l0 0c-36,0 -65,29 -65,65l-1 0c0,-36 -29,-65 -65,-65l0 0 0 0 0 0c36,0 65,-29 65,-65z"/>
  <path class="fil0" d="M9752 14689l1 0c0,36 29,65 65,65l0 0c-36,0 -65,30 -65,65l-1 0c0,-35 -29,-65 -65,-65l0 0 0 0 0 0c36,0 65,-29 65,-65z"/>
  <path class="fil0" d="M9752 14559l1 0c0,36 29,65 65,65l0 0c-36,0 -65,29 -65,65l-1 0c0,-36 -29,-65 -65,-65l0 0 0 0 0 0c36,0 65,-29 65,-65z"/>
  <path class="fil0" d="M9752 14298l1 0c0,36 29,66 65,66l0 0c-36,0 -65,29 -65,65l-1 0c0,-36 -29,-65 -65,-65l0 0 0 0 0 0c36,0 65,-30 65,-66z"/>
  <path class="fil0" d="M9752 13908l1 0c0,36 29,65 65,65l0 0c-36,0 -65,29 -65,65l-1 0c0,-36 -29,-65 -65,-65l0 0 0 0 0 0c36,0 65,-29 65,-65z"/>
  <path class="fil0" d="M9752 13777l1 0c0,36 29,66 65,66l0 0c-36,0 -65,29 -65,65l-1 0c0,-36 -29,-65 -65,-65l0 0 0 0 0 0c36,0 65,-30 65,-66z"/>
  <path class="fil0" d="M9752 13387l1 0c0,36 29,65 65,65l0 0c-36,0 -65,29 -65,65l-1 0c0,-36 -29,-65 -65,-65l0 0 0 0 0 0c36,0 65,-29 65,-65z"/>
  <path class="fil0" d="M9752 13256l1 0c0,36 29,66 65,66l0 0c-36,0 -65,29 -65,65l-1 0c0,-36 -29,-65 -65,-65l0 0 0 0 0 0c36,0 65,-30 65,-66z"/>
  <path class="fil0" d="M9752 12996l1 0c0,36 29,65 65,65l0 0c-36,0 -65,29 -65,65l-1 0c0,-36 -29,-65 -65,-65l0 0 0 0 0 0c36,0 65,-29 65,-65z"/>
  <path class="fil0" d="M9752 12605l1 0c0,36 29,65 65,65l0 0c-36,0 -65,30 -65,65l-1 0c0,-35 -29,-65 -65,-65l0 0 0 0 0 0c36,0 65,-29 65,-65z"/>
  <path class="fil0" d="M9752 12475l1 0c0,36 29,65 65,65l0 0c-36,0 -65,29 -65,65l-1 0c0,-36 -29,-65 -65,-65l0 0 0 0 0 0c36,0 65,-29 65,-65z"/>
  <path class="fil0" d="M9752 12345l1 0c0,36 29,65 65,65l0 0c-36,0 -65,29 -65,65l-1 0c0,-36 -29,-65 -65,-65l0 0 0 0 0 0c36,0 65,-29 65,-65z"/>
  <path class="fil0" d="M9752 12214l1 0c0,36 29,66 65,66l0 0c-36,0 -65,29 -65,65l-1 0c0,-36 -29,-65 -65,-65l0 0 0 0 0 0c36,0 65,-30 65,-66l0 0z"/>
  <path class="fil0" d="M9752 12084l1 0c0,36 29,65 65,65l0 0c-36,0 -65,30 -65,65l-1 0c0,-35 -29,-65 -65,-65l0 0 0 0 0 0c36,0 65,-29 65,-65l0 0z"/>
  <path class="fil0" d="M9752 11824l1 0c0,36 29,65 65,65l0 0c-36,0 -65,29 -65,65l-1 0c0,-36 -29,-65 -65,-65l0 0 0 0 0 0c36,0 65,-29 65,-65l0 0z"/>
  <path class="fil0" d="M9883 15471l0 0c0,36 29,65 65,65l0 0c-36,0 -65,29 -65,65l0 0c0,-36 -29,-65 -65,-65l0 0 0 0 0 0c36,0 65,-29 65,-65l0 0z"/>
  <path class="fil0" d="M9883 15340l0 0c0,36 29,66 65,66l0 0c-36,0 -65,29 -65,65l0 0c0,-36 -29,-65 -65,-65l0 0 0 0 0 0c36,0 65,-30 65,-66l0 0z"/>
  <path class="fil0" d="M9883 15210l0 0c0,36 29,65 65,65l0 0c-36,0 -65,30 -65,65l0 0c0,-35 -29,-65 -65,-65l0 0 0 0 0 0c36,0 65,-29 65,-65z"/>
  <path class="fil0" d="M9883 14559l0 0c0,36 29,65 65,65l0 0c-36,0 -65,29 -65,65l0 0c0,-36 -29,-65 -65,-65l0 0 0 0 0 0c36,0 65,-29 65,-65z"/>
  <path class="fil0" d="M9883 14429l0 0c0,36 29,65 65,65l0 0c-36,0 -65,29 -65,65l0 0c0,-36 -29,-65 -65,-65l0 0 0 0 0 0c36,0 65,-29 65,-65z"/>
  <path class="fil0" d="M9883 14168l0 0c0,36 29,65 65,65l0 0c-36,0 -65,30 -65,65l0 0c0,-35 -29,-65 -65,-65l0 0 0 0 0 0c36,0 65,-29 65,-65z"/>
  <path class="fil0" d="M9883 13517l0 0c0,36 29,65 65,65l0 0c-36,0 -65,29 -65,65l0 0c0,-36 -29,-65 -65,-65l0 0 0 0 0 0c36,0 65,-29 65,-65z"/>
  <path class="fil0" d="M9883 12996l0 0c0,36 29,65 65,65l0 0c-36,0 -65,29 -65,65l0 0c0,-36 -29,-65 -65,-65l0 0 0 0 0 0c36,0 65,-29 65,-65z"/>
  <path class="fil0" d="M9883 12214l0 0c0,36 29,66 65,66l0 0c-36,0 -65,29 -65,65l0 0c0,-36 -29,-65 -65,-65l0 0 0 0 0 0c36,0 65,-30 65,-66l0 0z"/>
  <path class="fil0" d="M9883 11824l0 0c0,36 29,65 65,65l0 0c-36,0 -65,29 -65,65l0 0c0,-36 -29,-65 -65,-65l0 0 0 0 0 0c36,0 65,-29 65,-65l0 0z"/>
  <path class="fil0" d="M9883 11693l0 0c0,36 29,66 65,66l0 0c-36,0 -65,29 -65,65l0 0c0,-36 -29,-65 -65,-65l0 0 0 0 0 0c36,0 65,-30 65,-66l0 0z"/>
  <path class="fil0" d="M9883 11563l0 0c0,36 29,65 65,65l0 0c-36,0 -65,30 -65,65l0 0c0,-35 -29,-65 -65,-65l0 0 0 0 0 0c36,0 65,-29 65,-65l0 0z"/>
  <path class="fil0" d="M9883 11433l0 0c0,36 29,65 65,65l0 0c-36,0 -65,29 -65,65l0 0c0,-36 -29,-65 -65,-65l0 0 0 0 0 0c36,0 65,-29 65,-65l0 0z"/>
  <path class="fil0" d="M9883 11303l0 0c0,36 29,65 65,65l0 0c-36,0 -65,29 -65,65l0 0c0,-36 -29,-65 -65,-65l0 0 0 0 0 0c36,0 65,-29 65,-65z"/>
  <path class="fil0" d="M10013 15340l0 0c0,36 29,66 65,66l0 0c-36,0 -65,29 -65,65l0 0c0,-36 -29,-65 -65,-65l0 0 0 0 0 0c36,0 65,-30 65,-66l0 0z"/>
  <path class="fil0" d="M10013 15080l0 0c0,36 29,65 65,65l0 0c-36,0 -65,29 -65,65l0 0c0,-36 -29,-65 -65,-65l0 0 0 0 0 0c36,0 65,-29 65,-65z"/>
  <path class="fil0" d="M10013 14950l0 0c0,36 29,65 65,65l0 0c-36,0 -65,29 -65,65l0 0c0,-36 -29,-65 -65,-65l0 0 0 0 0 0c36,0 65,-29 65,-65z"/>
  <path class="fil0" d="M10013 14689l0 0c0,36 29,65 65,65l0 0c-36,0 -65,30 -65,65l0 0c0,-35 -29,-65 -65,-65l0 0 0 0 0 0c36,0 65,-29 65,-65z"/>
  <path class="fil0" d="M10013 14429l0 0c0,36 29,65 65,65l0 0c-36,0 -65,29 -65,65l0 0c0,-36 -29,-65 -65,-65l0 0 0 0 0 0c36,0 65,-29 65,-65z"/>
  <path class="fil0" d="M10013 12345l0 0c0,36 29,65 65,65l0 0c-36,0 -65,29 -65,65l0 0c0,-36 -29,-65 -65,-65l0 0 0 0 0 0c36,0 65,-29 65,-65z"/>
  <path class="fil0" d="M10013 12214l0 0c0,36 29,66 65,66l0 0c-36,0 -65,29 -65,65l0 0c0,-36 -29,-65 -65,-65l0 0 0 0 0 0c36,0 65,-30 65,-66l0 0z"/>
  <path class="fil0" d="M10013 12084l0 0c0,36 29,65 65,65l0 0c-36,0 -65,30 -65,65l0 0c0,-35 -29,-65 -65,-65l0 0 0 0 0 0c36,0 65,-29 65,-65l0 0z"/>
  <path class="fil0" d="M10013 11433l0 0c0,36 29,65 65,65l0 0c-36,0 -65,29 -65,65l0 0c0,-36 -29,-65 -65,-65l0 0 0 0 0 0c36,0 65,-29 65,-65l0 0z"/>
  <path class="fil0" d="M10143 15080l0 0c0,36 29,65 65,65l0 0c-36,0 -65,29 -65,65l0 0c0,-36 -29,-65 -65,-65l0 0 0 0 0 0c36,0 65,-29 65,-65z"/>
  <path class="fil0" d="M10143 14559l0 0c0,36 29,65 65,65l0 0c-36,0 -65,29 -65,65l0 0c0,-36 -29,-65 -65,-65l0 0 0 0 0 0c36,0 65,-29 65,-65z"/>
  <path class="fil0" d="M10143 14429l0 0c0,36 29,65 65,65l0 0c-36,0 -65,29 -65,65l0 0c0,-36 -29,-65 -65,-65l0 0 0 0 0 0c36,0 65,-29 65,-65z"/>
  <path class="fil0" d="M10143 12214l0 0c0,36 29,66 65,66l0 0c-36,0 -65,29 -65,65l0 0c0,-36 -29,-65 -65,-65l0 0 0 0 0 0c36,0 65,-30 65,-66l0 0z"/>
  <path class="fil0" d="M10143 11954l0 0c0,36 29,65 65,65l0 0c-36,0 -65,29 -65,65l0 0c0,-36 -29,-65 -65,-65l0 0 0 0 0 0c36,0 65,-29 65,-65l0 0z"/>
  <path class="fil0" d="M10143 11563l0 0c0,36 29,65 65,65l0 0c-36,0 -65,30 -65,65l0 0c0,-35 -29,-65 -65,-65l0 0 0 0 0 0c36,0 65,-29 65,-65l0 0z"/>
  <path class="fil0" d="M10143 11303l0 0c0,36 29,65 65,65l0 0c-36,0 -65,29 -65,65l0 0c0,-36 -29,-65 -65,-65l0 0 0 0 0 0c36,0 65,-29 65,-65z"/>
  <path class="fil0" d="M10273 15471l0 0c0,36 30,65 66,65l0 0c-36,0 -66,29 -66,65l0 0c0,-36 -29,-65 -65,-65l0 0 0 0 0 0c36,0 65,-29 65,-65l0 0z"/>
  <path class="fil0" d="M10273 15340l0 0c0,36 30,66 66,66l0 0c-36,0 -66,29 -66,65l0 0c0,-36 -29,-65 -65,-65l0 0 0 0 0 0c36,0 65,-30 65,-66l0 0z"/>
  <path class="fil0" d="M10273 15080l0 0c0,36 30,65 66,65l0 0c-36,0 -66,29 -66,65l0 0c0,-36 -29,-65 -65,-65l0 0 0 0 0 0c36,0 65,-29 65,-65z"/>
  <path class="fil0" d="M10273 14950l0 0c0,36 30,65 66,65l0 0c-36,0 -66,29 -66,65l0 0c0,-36 -29,-65 -65,-65l0 0 0 0 0 0c36,0 65,-29 65,-65z"/>
  <path class="fil0" d="M10273 14819l0 0c0,36 30,66 66,66l0 0c-36,0 -66,29 -66,65l0 0c0,-36 -29,-65 -65,-65l0 0 0 0 0 0c36,0 65,-30 65,-66z"/>
  <path class="fil0" d="M10273 14429l0 0c0,36 30,65 66,65l0 0c-36,0 -66,29 -66,65l0 0c0,-36 -29,-65 -65,-65l0 0 0 0 0 0c36,0 65,-29 65,-65z"/>
  <path class="fil0" d="M10273 14298l0 0c0,36 30,66 66,66l0 0c-36,0 -66,29 -66,65l0 0c0,-36 -29,-65 -65,-65l0 0 0 0 0 0c36,0 65,-30 65,-66z"/>
  <path class="fil0" d="M10273 12475l0 0c0,36 30,65 66,65l0 0c-36,0 -66,29 -66,65l0 0c0,-36 -29,-65 -65,-65l0 0 0 0 0 0c36,0 65,-29 65,-65z"/>
  <path class="fil0" d="M10273 12084l0 0c0,36 30,65 66,65l0 0c-36,0 -66,30 -66,65l0 0c0,-35 -29,-65 -65,-65l0 0 0 0 0 0c36,0 65,-29 65,-65l0 0z"/>
  <path class="fil0" d="M10273 11954l0 0c0,36 30,65 66,65l0 0c-36,0 -66,29 -66,65l0 0c0,-36 -29,-65 -65,-65l0 0 0 0 0 0c36,0 65,-29 65,-65l0 0z"/>
  <path class="fil0" d="M10273 11693l0 0c0,36 30,66 66,66l0 0c-36,0 -66,29 -66,65l0 0c0,-36 -29,-65 -65,-65l0 0 0 0 0 0c36,0 65,-30 65,-66l0 0z"/>
  <path class="fil0" d="M10273 11303l0 0c0,36 30,65 66,65l0 0c-36,0 -66,29 -66,65l0 0c0,-36 -29,-65 -65,-65l0 0 0 0 0 0c36,0 65,-29 65,-65z"/>
  <path class="fil0" d="M10404 15340l0 0c0,36 29,66 65,66l0 0c-36,0 -65,29 -65,65l0 0c0,-36 -30,-65 -65,-65l0 0 0 0 0 0c35,0 65,-30 65,-66l0 0z"/>
  <path class="fil0" d="M10404 14950l0 0c0,36 29,65 65,65l0 0c-36,0 -65,29 -65,65l0 0c0,-36 -30,-65 -65,-65l0 0 0 0 0 0c35,0 65,-29 65,-65z"/>
  <path class="fil0" d="M10404 14689l0 0c0,36 29,65 65,65l0 0c-36,0 -65,30 -65,65l0 0c0,-35 -30,-65 -65,-65l0 0 0 0 0 0c35,0 65,-29 65,-65z"/>
  <path class="fil0" d="M10404 14559l0 0c0,36 29,65 65,65l0 0c-36,0 -65,29 -65,65l0 0c0,-36 -30,-65 -65,-65l0 0 0 0 0 0c35,0 65,-29 65,-65z"/>
  <path class="fil0" d="M10404 12214l0 0c0,36 29,66 65,66l0 0c-36,0 -65,29 -65,65l0 0c0,-36 -30,-65 -65,-65l0 0 0 0 0 0c35,0 65,-30 65,-66l0 0z"/>
  <path class="fil0" d="M10404 11954l0 0c0,36 29,65 65,65l0 0c-36,0 -65,29 -65,65l0 0c0,-36 -30,-65 -65,-65l0 0 0 0 0 0c35,0 65,-29 65,-65l0 0z"/>
  <path class="fil0" d="M10404 11824l0 0c0,36 29,65 65,65l0 0c-36,0 -65,29 -65,65l0 0c0,-36 -30,-65 -65,-65l0 0 0 0 0 0c35,0 65,-29 65,-65l0 0z"/>
  <path class="fil0" d="M10404 11563l0 0c0,36 29,65 65,65l0 0c-36,0 -65,30 -65,65l0 0c0,-35 -30,-65 -65,-65l0 0 0 0 0 0c35,0 65,-29 65,-65l0 0z"/>
  <path class="fil0" d="M10404 11303l0 0c0,36 29,65 65,65l0 0c-36,0 -65,29 -65,65l0 0c0,-36 -30,-65 -65,-65l0 0 0 0 0 0c35,0 65,-29 65,-65z"/>
  <path class="fil0" d="M10534 15471l0 0c0,36 29,65 65,65l0 0c-36,0 -65,29 -65,65l0 0c0,-36 -29,-65 -65,-65l0 0 0 0 0 0c36,0 65,-29 65,-65l0 0z"/>
  <path class="fil0" d="M10534 15210l0 0c0,36 29,65 65,65l0 0c-36,0 -65,30 -65,65l0 0c0,-35 -29,-65 -65,-65l0 0 0 0 0 0c36,0 65,-29 65,-65z"/>
  <path class="fil0" d="M10534 14950l0 0c0,36 29,65 65,65l0 0c-36,0 -65,29 -65,65l0 0c0,-36 -29,-65 -65,-65l0 0 0 0 0 0c36,0 65,-29 65,-65z"/>
  <path class="fil0" d="M10534 14819l0 0c0,36 29,66 65,66l0 0c-36,0 -65,29 -65,65l0 0c0,-36 -29,-65 -65,-65l0 0 0 0 0 0c36,0 65,-30 65,-66z"/>
  <path class="fil0" d="M10534 14689l0 0c0,36 29,65 65,65l0 0c-36,0 -65,30 -65,65l0 0c0,-35 -29,-65 -65,-65l0 0 0 0 0 0c36,0 65,-29 65,-65z"/>
  <path class="fil0" d="M10534 14559l0 0c0,36 29,65 65,65l0 0c-36,0 -65,29 -65,65l0 0c0,-36 -29,-65 -65,-65l0 0 0 0 0 0c36,0 65,-29 65,-65z"/>
  <path class="fil0" d="M10534 14429l0 0c0,36 29,65 65,65l0 0c-36,0 -65,29 -65,65l0 0c0,-36 -29,-65 -65,-65l0 0 0 0 0 0c36,0 65,-29 65,-65z"/>
  <path class="fil0" d="M10534 12475l0 0c0,36 29,65 65,65l0 0c-36,0 -65,29 -65,65l0 0c0,-36 -29,-65 -65,-65l0 0 0 0 0 0c36,0 65,-29 65,-65z"/>
  <path class="fil0" d="M10534 12345l0 0c0,36 29,65 65,65l0 0c-36,0 -65,29 -65,65l0 0c0,-36 -29,-65 -65,-65l0 0 0 0 0 0c36,0 65,-29 65,-65z"/>
  <path class="fil0" d="M10534 12214l0 0c0,36 29,66 65,66l0 0c-36,0 -65,29 -65,65l0 0c0,-36 -29,-65 -65,-65l0 0 0 0 0 0c36,0 65,-30 65,-66l0 0z"/>
  <path class="fil0" d="M10534 12084l0 0c0,36 29,65 65,65l0 0c-36,0 -65,30 -65,65l0 0c0,-35 -29,-65 -65,-65l0 0 0 0 0 0c36,0 65,-29 65,-65l0 0z"/>
  <path class="fil0" d="M10534 11824l0 0c0,36 29,65 65,65l0 0c-36,0 -65,29 -65,65l0 0c0,-36 -29,-65 -65,-65l0 0 0 0 0 0c36,0 65,-29 65,-65l0 0z"/>
  <path class="fil0" d="M10664 14950l0 0c0,36 29,65 65,65l0 0c-36,0 -65,29 -65,65l0 0c0,-36 -29,-65 -65,-65l0 0 0 0 0 0c36,0 65,-29 65,-65z"/>
  <path class="fil0" d="M10664 14559l0 0c0,36 29,65 65,65l0 0c-36,0 -65,29 -65,65l0 0c0,-36 -29,-65 -65,-65l0 0 0 0 0 0c36,0 65,-29 65,-65z"/>
  <path class="fil0" d="M10794 15471l0 0c0,36 29,65 65,65l0 0c-35,0 -65,29 -65,65l0 0c0,-36 -29,-65 -65,-65l0 0 0 0 0 0c36,0 65,-29 65,-65l0 0z"/>
  <path class="fil0" d="M10794 15080l0 0c0,36 29,65 65,65l0 0c-35,0 -65,29 -65,65l0 0c0,-36 -29,-65 -65,-65l0 0 0 0 0 0c36,0 65,-29 65,-65z"/>
  <path class="fil0" d="M10794 14298l0 0c0,36 29,66 65,66l0 0c-35,0 -65,29 -65,65l0 0c0,-36 -29,-65 -65,-65l0 0 0 0 0 0c36,0 65,-30 65,-66z"/>
  <path class="fil0" d="M10794 12475l0 0c0,36 29,65 65,65l0 0c-35,0 -65,29 -65,65l0 0c0,-36 -29,-65 -65,-65l0 0 0 0 0 0c36,0 65,-29 65,-65z"/>
  <path class="fil0" d="M10794 12214l0 0c0,36 29,66 65,66l0 0c-35,0 -65,29 -65,65l0 0c0,-36 -29,-65 -65,-65l0 0 0 0 0 0c36,0 65,-30 65,-66l0 0z"/>
  <path class="fil0" d="M10794 12084l0 0c0,36 29,65 65,65l0 0c-35,0 -65,30 -65,65l0 0c0,-35 -29,-65 -65,-65l0 0 0 0 0 0c36,0 65,-29 65,-65l0 0z"/>
  <path class="fil0" d="M10794 11693l0 0c0,36 29,66 65,66l0 0c-35,0 -65,29 -65,65l0 0c0,-36 -29,-65 -65,-65l0 0 0 0 0 0c36,0 65,-30 65,-66l0 0z"/>
  <path class="fil0" d="M10925 15471l0 0c0,36 29,65 65,65l0 0c-36,0 -65,29 -65,65l0 0c0,-36 -30,-65 -66,-65l0 0 0 0 0 0c36,0 66,-29 66,-65l0 0z"/>
  <path class="fil0" d="M10925 15210l0 0c0,36 29,65 65,65l0 0c-36,0 -65,30 -65,65l0 0c0,-35 -30,-65 -66,-65l0 0 0 0 0 0c36,0 66,-29 66,-65z"/>
  <path class="fil0" d="M10925 14689l0 0c0,36 29,65 65,65l0 0c-36,0 -65,30 -65,65l0 0c0,-35 -30,-65 -66,-65l0 0 0 0 0 0c36,0 66,-29 66,-65z"/>
  <path class="fil0" d="M10925 14559l0 0c0,36 29,65 65,65l0 0c-36,0 -65,29 -65,65l0 0c0,-36 -30,-65 -66,-65l0 0 0 0 0 0c36,0 66,-29 66,-65z"/>
  <path class="fil0" d="M10925 11824l0 0c0,36 29,65 65,65l0 0c-36,0 -65,29 -65,65l0 0c0,-36 -30,-65 -66,-65l0 0 0 0 0 0c36,0 66,-29 66,-65l0 0z"/>
  <path class="fil0" d="M10925 11693l0 0c0,36 29,66 65,66l0 0c-36,0 -65,29 -65,65l0 0c0,-36 -30,-65 -66,-65l0 0 0 0 0 0c36,0 66,-30 66,-66l0 0z"/>
  <path class="fil0" d="M10925 11563l0 0c0,36 29,65 65,65l0 0c-36,0 -65,30 -65,65l0 0c0,-35 -30,-65 -66,-65l0 0 0 0 0 0c36,0 66,-29 66,-65l0 0z"/>
  <path class="fil0" d="M10925 11303l0 0c0,36 29,65 65,65l0 0c-36,0 -65,29 -65,65l0 0c0,-36 -30,-65 -66,-65l0 0 0 0 0 0c36,0 66,-29 66,-65z"/>
  <path class="fil0" d="M11055 15340l0 0c0,36 29,66 65,66l0 0c-36,0 -65,29 -65,65l0 0c0,-36 -29,-65 -65,-65l0 0 0 0 0 0c36,0 65,-30 65,-66l0 0z"/>
  <path class="fil0" d="M11055 15080l0 0c0,36 29,65 65,65l0 0c-36,0 -65,29 -65,65l0 0c0,-36 -29,-65 -65,-65l0 0 0 0 0 0c36,0 65,-29 65,-65z"/>
  <path class="fil0" d="M11055 14689l0 0c0,36 29,65 65,65l0 0c-36,0 -65,30 -65,65l0 0c0,-35 -29,-65 -65,-65l0 0 0 0 0 0c36,0 65,-29 65,-65z"/>
  <path class="fil0" d="M11055 14559l0 0c0,36 29,65 65,65l0 0c-36,0 -65,29 -65,65l0 0c0,-36 -29,-65 -65,-65l0 0 0 0 0 0c36,0 65,-29 65,-65z"/>
  <path class="fil0" d="M11055 12475l0 0c0,36 29,65 65,65l0 0c-36,0 -65,29 -65,65l0 0c0,-36 -29,-65 -65,-65l0 0 0 0 0 0c36,0 65,-29 65,-65z"/>
  <path class="fil0" d="M11055 12345l0 0c0,36 29,65 65,65l0 0c-36,0 -65,29 -65,65l0 0c0,-36 -29,-65 -65,-65l0 0 0 0 0 0c36,0 65,-29 65,-65z"/>
  <path class="fil0" d="M11055 12214l0 0c0,36 29,66 65,66l0 0c-36,0 -65,29 -65,65l0 0c0,-36 -29,-65 -65,-65l0 0 0 0 0 0c36,0 65,-30 65,-66l0 0z"/>
  <path class="fil0" d="M11055 12084l0 0c0,36 29,65 65,65l0 0c-36,0 -65,30 -65,65l0 0c0,-35 -29,-65 -65,-65l0 0 0 0 0 0c36,0 65,-29 65,-65l0 0z"/>
  <path class="fil0" d="M11055 11954l0 0c0,36 29,65 65,65l0 0c-36,0 -65,29 -65,65l0 0c0,-36 -29,-65 -65,-65l0 0 0 0 0 0c36,0 65,-29 65,-65l0 0z"/>
  <path class="fil0" d="M11055 11824l0 0c0,36 29,65 65,65l0 0c-36,0 -65,29 -65,65l0 0c0,-36 -29,-65 -65,-65l0 0 0 0 0 0c36,0 65,-29 65,-65l0 0z"/>
  <path class="fil0" d="M11055 11563l0 0c0,36 29,65 65,65l0 0c-36,0 -65,30 -65,65l0 0c0,-35 -29,-65 -65,-65l0 0 0 0 0 0c36,0 65,-29 65,-65l0 0z"/>
  <path class="fil0" d="M11185 15471l0 0c0,36 29,65 65,65l0 0c-36,0 -65,29 -65,65l0 0c0,-36 -29,-65 -65,-65l0 0 0 0 0 0c36,0 65,-29 65,-65l0 0z"/>
  <path class="fil0" d="M11185 15080l0 0c0,36 29,65 65,65l0 0c-36,0 -65,29 -65,65l0 0c0,-36 -29,-65 -65,-65l0 0 0 0 0 0c36,0 65,-29 65,-65z"/>
  <path class="fil0" d="M11185 14950l0 0c0,36 29,65 65,65l0 0c-36,0 -65,29 -65,65l0 0c0,-36 -29,-65 -65,-65l0 0 0 0 0 0c36,0 65,-29 65,-65z"/>
  <path class="fil0" d="M11185 14819l0 0c0,36 29,66 65,66l0 0c-36,0 -65,29 -65,65l0 0c0,-36 -29,-65 -65,-65l0 0 0 0 0 0c36,0 65,-30 65,-66z"/>
  <path class="fil0" d="M11185 12214l0 0c0,36 29,66 65,66l0 0c-36,0 -65,29 -65,65l0 0c0,-36 -29,-65 -65,-65l0 0 0 0 0 0c36,0 65,-30 65,-66l0 0z"/>
  <path class="fil0" d="M11185 11954l0 0c0,36 29,65 65,65l0 0c-36,0 -65,29 -65,65l0 0c0,-36 -29,-65 -65,-65l0 0 0 0 0 0c36,0 65,-29 65,-65l0 0z"/>
  <path class="fil0" d="M11185 11563l0 0c0,36 29,65 65,65l0 0c-36,0 -65,30 -65,65l0 0c0,-35 -29,-65 -65,-65l0 0 0 0 0 0c36,0 65,-29 65,-65l0 0z"/>
  <path class="fil0" d="M11185 11433l0 0c0,36 29,65 65,65l0 0c-36,0 -65,29 -65,65l0 0c0,-36 -29,-65 -65,-65l0 0 0 0 0 0c36,0 65,-29 65,-65l0 0z"/>
  <path class="fil0" d="M11315 15340l0 0c0,36 29,66 65,66l0 0c-36,0 -65,29 -65,65l0 0c0,-36 -29,-65 -65,-65l0 0 0 0 0 0c36,0 65,-30 65,-66l0 0z"/>
  <path class="fil0" d="M11315 15210l0 0c0,36 29,65 65,65l0 0c-36,0 -65,30 -65,65l0 0c0,-35 -29,-65 -65,-65l0 0 0 0 0 0c36,0 65,-29 65,-65z"/>
  <path class="fil0" d="M11315 15080l0 0c0,36 29,65 65,65l0 0c-36,0 -65,29 -65,65l0 0c0,-36 -29,-65 -65,-65l0 0 0 0 0 0c36,0 65,-29 65,-65z"/>
  <path class="fil0" d="M11315 14950l0 0c0,36 29,65 65,65l0 0c-36,0 -65,29 -65,65l0 0c0,-36 -29,-65 -65,-65l0 0 0 0 0 0c36,0 65,-29 65,-65z"/>
  <path class="fil0" d="M11315 14689l0 0c0,36 29,65 65,65l0 0c-36,0 -65,30 -65,65l0 0c0,-35 -29,-65 -65,-65l0 0 0 0 0 0c36,0 65,-29 65,-65z"/>
  <path class="fil0" d="M11315 14559l0 0c0,36 29,65 65,65l0 0c-36,0 -65,29 -65,65l0 0c0,-36 -29,-65 -65,-65l0 0 0 0 0 0c36,0 65,-29 65,-65z"/>
  <path class="fil0" d="M11315 14429l0 0c0,36 29,65 65,65l0 0c-36,0 -65,29 -65,65l0 0c0,-36 -29,-65 -65,-65l0 0 0 0 0 0c36,0 65,-29 65,-65z"/>
  <path class="fil0" d="M11315 14298l0 0c0,36 29,66 65,66l0 0c-36,0 -65,29 -65,65l0 0c0,-36 -29,-65 -65,-65l0 0 0 0 0 0c36,0 65,-30 65,-66z"/>
  <path class="fil0" d="M11315 12084l0 0c0,36 29,65 65,65l0 0c-36,0 -65,30 -65,65l0 0c0,-35 -29,-65 -65,-65l0 0 0 0 0 0c36,0 65,-29 65,-65l0 0z"/>
  <path class="fil0" d="M11315 11954l0 0c0,36 29,65 65,65l0 0c-36,0 -65,29 -65,65l0 0c0,-36 -29,-65 -65,-65l0 0 0 0 0 0c36,0 65,-29 65,-65l0 0z"/>
  <path class="fil0" d="M11315 11824l0 0c0,36 29,65 65,65l0 0c-36,0 -65,29 -65,65l0 0c0,-36 -29,-65 -65,-65l0 0 0 0 0 0c36,0 65,-29 65,-65l0 0z"/>
  <path class="fil0" d="M11315 11693l0 0c0,36 29,66 65,66l0 0c-36,0 -65,29 -65,65l0 0c0,-36 -29,-65 -65,-65l0 0 0 0 0 0c36,0 65,-30 65,-66l0 0z"/>
  <path class="fil0" d="M11315 11433l0 0c0,36 29,65 65,65l0 0c-36,0 -65,29 -65,65l0 0c0,-36 -29,-65 -65,-65l0 0 0 0 0 0c36,0 65,-29 65,-65l0 0z"/>
  <path class="fil0" d="M11315 11303l0 0c0,36 29,65 65,65l0 0c-36,0 -65,29 -65,65l0 0c0,-36 -29,-65 -65,-65l0 0 0 0 0 0c36,0 65,-29 65,-65z"/>
  <path class="fil0" d="M11445 15471l1 0c0,36 29,65 65,65l0 0c-36,0 -65,29 -65,65l-1 0c0,-36 -29,-65 -65,-65l0 0 0 0 0 0c36,0 65,-29 65,-65l0 0z"/>
  <path class="fil0" d="M11445 15340l1 0c0,36 29,66 65,66l0 0c-36,0 -65,29 -65,65l-1 0c0,-36 -29,-65 -65,-65l0 0 0 0 0 0c36,0 65,-30 65,-66l0 0z"/>
  <path class="fil0" d="M11445 15210l1 0c0,36 29,65 65,65l0 0c-36,0 -65,30 -65,65l-1 0c0,-35 -29,-65 -65,-65l0 0 0 0 0 0c36,0 65,-29 65,-65z"/>
  <path class="fil0" d="M11445 15080l1 0c0,36 29,65 65,65l0 0c-36,0 -65,29 -65,65l-1 0c0,-36 -29,-65 -65,-65l0 0 0 0 0 0c36,0 65,-29 65,-65z"/>
  <path class="fil0" d="M11445 14819l1 0c0,36 29,66 65,66l0 0c-36,0 -65,29 -65,65l-1 0c0,-36 -29,-65 -65,-65l0 0 0 0 0 0c36,0 65,-30 65,-66z"/>
  <path class="fil0" d="M11445 12214l1 0c0,36 29,66 65,66l0 0c-36,0 -65,29 -65,65l-1 0c0,-36 -29,-65 -65,-65l0 0 0 0 0 0c36,0 65,-30 65,-66l0 0z"/>
  <path class="fil0" d="M11445 11954l1 0c0,36 29,65 65,65l0 0c-36,0 -65,29 -65,65l-1 0c0,-36 -29,-65 -65,-65l0 0 0 0 0 0c36,0 65,-29 65,-65l0 0z"/>
  <path class="fil0" d="M11445 11693l1 0c0,36 29,66 65,66l0 0c-36,0 -65,29 -65,65l-1 0c0,-36 -29,-65 -65,-65l0 0 0 0 0 0c36,0 65,-30 65,-66l0 0z"/>
  <path class="fil0" d="M11445 11563l1 0c0,36 29,65 65,65l0 0c-36,0 -65,30 -65,65l-1 0c0,-35 -29,-65 -65,-65l0 0 0 0 0 0c36,0 65,-29 65,-65l0 0z"/>
  <path class="fil0" d="M11445 11433l1 0c0,36 29,65 65,65l0 0c-36,0 -65,29 -65,65l-1 0c0,-36 -29,-65 -65,-65l0 0 0 0 0 0c36,0 65,-29 65,-65l0 0z"/>
  <path class="fil0" d="M11445 11303l1 0c0,36 29,65 65,65l0 0c-36,0 -65,29 -65,65l-1 0c0,-36 -29,-65 -65,-65l0 0 0 0 0 0c36,0 65,-29 65,-65z"/>
  <path class="fil0" d="M11576 14819l0 0c0,36 29,66 65,66l0 0c-36,0 -65,29 -65,65l0 0c0,-36 -29,-65 -65,-65l0 0 0 0 0 0c36,0 65,-30 65,-66z"/>
  <path class="fil0" d="M11576 14689l0 0c0,36 29,65 65,65l0 0c-36,0 -65,30 -65,65l0 0c0,-35 -29,-65 -65,-65l0 0 0 0 0 0c36,0 65,-29 65,-65z"/>
  <path class="fil0" d="M11576 14559l0 0c0,36 29,65 65,65l0 0c-36,0 -65,29 -65,65l0 0c0,-36 -29,-65 -65,-65l0 0 0 0 0 0c36,0 65,-29 65,-65z"/>
  <path class="fil0" d="M11576 12475l0 0c0,36 29,65 65,65l0 0c-36,0 -65,29 -65,65l0 0c0,-36 -29,-65 -65,-65l0 0 0 0 0 0c36,0 65,-29 65,-65z"/>
  <path class="fil0" d="M11576 12345l0 0c0,36 29,65 65,65l0 0c-36,0 -65,29 -65,65l0 0c0,-36 -29,-65 -65,-65l0 0 0 0 0 0c36,0 65,-29 65,-65z"/>
  <path class="fil0" d="M11576 12084l0 0c0,36 29,65 65,65l0 0c-36,0 -65,30 -65,65l0 0c0,-35 -29,-65 -65,-65l0 0 0 0 0 0c36,0 65,-29 65,-65l0 0z"/>
  <path class="fil0" d="M11576 11824l0 0c0,36 29,65 65,65l0 0c-36,0 -65,29 -65,65l0 0c0,-36 -29,-65 -65,-65l0 0 0 0 0 0c36,0 65,-29 65,-65l0 0z"/>
  <path class="fil0" d="M11576 11693l0 0c0,36 29,66 65,66l0 0c-36,0 -65,29 -65,65l0 0c0,-36 -29,-65 -65,-65l0 0 0 0 0 0c36,0 65,-30 65,-66l0 0z"/>
  <path class="fil0" d="M11576 11563l0 0c0,36 29,65 65,65l0 0c-36,0 -65,30 -65,65l0 0c0,-35 -29,-65 -65,-65l0 0 0 0 0 0c36,0 65,-29 65,-65l0 0z"/>
  <path class="fil0" d="M11576 11433l0 0c0,36 29,65 65,65l0 0c-36,0 -65,29 -65,65l0 0c0,-36 -29,-65 -65,-65l0 0 0 0 0 0c36,0 65,-29 65,-65l0 0z"/>
  <path class="fil0" d="M11706 15340l0 0c0,36 29,66 65,66l0 0c-36,0 -65,29 -65,65l0 0c0,-36 -29,-65 -65,-65l0 0 0 0 0 0c36,0 65,-30 65,-66l0 0z"/>
  <path class="fil0" d="M11706 15210l0 0c0,36 29,65 65,65l0 0c-36,0 -65,30 -65,65l0 0c0,-35 -29,-65 -65,-65l0 0 0 0 0 0c36,0 65,-29 65,-65z"/>
  <path class="fil0" d="M11706 14819l0 0c0,36 29,66 65,66l0 0c-36,0 -65,29 -65,65l0 0c0,-36 -29,-65 -65,-65l0 0 0 0 0 0c36,0 65,-30 65,-66z"/>
  <path class="fil0" d="M11706 14429l0 0c0,36 29,65 65,65l0 0c-36,0 -65,29 -65,65l0 0c0,-36 -29,-65 -65,-65l0 0 0 0 0 0c36,0 65,-29 65,-65z"/>
  <path class="fil0" d="M11706 14298l0 0c0,36 29,66 65,66l0 0c-36,0 -65,29 -65,65l0 0c0,-36 -29,-65 -65,-65l0 0 0 0 0 0c36,0 65,-30 65,-66z"/>
  <path class="fil0" d="M11706 13387l0 0c0,36 29,65 65,65l0 0c-36,0 -65,29 -65,65l0 0c0,-36 -29,-65 -65,-65l0 0 0 0 0 0c36,0 65,-29 65,-65z"/>
  <path class="fil0" d="M11706 13256l0 0c0,36 29,66 65,66l0 0c-36,0 -65,29 -65,65l0 0c0,-36 -29,-65 -65,-65l0 0 0 0 0 0c36,0 65,-30 65,-66z"/>
  <path class="fil0" d="M11706 13126l0 0c0,36 29,65 65,65l0 0c-36,0 -65,30 -65,65l0 0c0,-35 -29,-65 -65,-65l0 0 0 0 0 0c36,0 65,-29 65,-65z"/>
  <path class="fil0" d="M11706 12996l0 0c0,36 29,65 65,65l0 0c-36,0 -65,29 -65,65l0 0c0,-36 -29,-65 -65,-65l0 0 0 0 0 0c36,0 65,-29 65,-65z"/>
  <path class="fil0" d="M11706 12735l0 0c0,36 29,66 65,66l0 0c-36,0 -65,29 -65,65l0 0c0,-36 -29,-65 -65,-65l0 0 0 0 0 0c36,0 65,-30 65,-66z"/>
  <path class="fil0" d="M11706 12605l0 0c0,36 29,65 65,65l0 0c-36,0 -65,30 -65,65l0 0c0,-35 -29,-65 -65,-65l0 0 0 0 0 0c36,0 65,-29 65,-65z"/>
  <path class="fil0" d="M11706 12214l0 0c0,36 29,66 65,66l0 0c-36,0 -65,29 -65,65l0 0c0,-36 -29,-65 -65,-65l0 0 0 0 0 0c36,0 65,-30 65,-66l0 0z"/>
  <path class="fil0" d="M11706 11824l0 0c0,36 29,65 65,65l0 0c-36,0 -65,29 -65,65l0 0c0,-36 -29,-65 -65,-65l0 0 0 0 0 0c36,0 65,-29 65,-65l0 0z"/>
  <path class="fil0" d="M11706 11563l0 0c0,36 29,65 65,65l0 0c-36,0 -65,30 -65,65l0 0c0,-35 -29,-65 -65,-65l0 0 0 0 0 0c36,0 65,-29 65,-65l0 0z"/>
  <path class="fil0" d="M11706 11303l0 0c0,36 29,65 65,65l0 0c-36,0 -65,29 -65,65l0 0c0,-36 -29,-65 -65,-65l0 0 0 0 0 0c36,0 65,-29 65,-65z"/>
  <path class="fil0" d="M11836 15471l0 0c0,36 29,65 65,65l0 0c-36,0 -65,29 -65,65l0 0c0,-36 -29,-65 -65,-65l0 0 0 0 0 0c36,0 65,-29 65,-65l0 0z"/>
  <path class="fil0" d="M11836 15210l0 0c0,36 29,65 65,65l0 0c-36,0 -65,30 -65,65l0 0c0,-35 -29,-65 -65,-65l0 0 0 0 0 0c36,0 65,-29 65,-65z"/>
  <path class="fil0" d="M11836 15080l0 0c0,36 29,65 65,65l0 0c-36,0 -65,29 -65,65l0 0c0,-36 -29,-65 -65,-65l0 0 0 0 0 0c36,0 65,-29 65,-65z"/>
  <path class="fil0" d="M11836 14950l0 0c0,36 29,65 65,65l0 0c-36,0 -65,29 -65,65l0 0c0,-36 -29,-65 -65,-65l0 0 0 0 0 0c36,0 65,-29 65,-65z"/>
  <path class="fil0" d="M11836 14819l0 0c0,36 29,66 65,66l0 0c-36,0 -65,29 -65,65l0 0c0,-36 -29,-65 -65,-65l0 0 0 0 0 0c36,0 65,-30 65,-66z"/>
  <path class="fil0" d="M11836 14689l0 0c0,36 29,65 65,65l0 0c-36,0 -65,30 -65,65l0 0c0,-35 -29,-65 -65,-65l0 0 0 0 0 0c36,0 65,-29 65,-65z"/>
  <path class="fil0" d="M11836 14559l0 0c0,36 29,65 65,65l0 0c-36,0 -65,29 -65,65l0 0c0,-36 -29,-65 -65,-65l0 0 0 0 0 0c36,0 65,-29 65,-65z"/>
  <path class="fil0" d="M11836 14429l0 0c0,36 29,65 65,65l0 0c-36,0 -65,29 -65,65l0 0c0,-36 -29,-65 -65,-65l0 0 0 0 0 0c36,0 65,-29 65,-65z"/>
  <path class="fil0" d="M11836 14298l0 0c0,36 29,66 65,66l0 0c-36,0 -65,29 -65,65l0 0c0,-36 -29,-65 -65,-65l0 0 0 0 0 0c36,0 65,-30 65,-66z"/>
  <path class="fil0" d="M11836 13777l0 0c0,36 29,66 65,66l0 0c-36,0 -65,29 -65,65l0 0c0,-36 -29,-65 -65,-65l0 0 0 0 0 0c36,0 65,-30 65,-66z"/>
  <path class="fil0" d="M11836 12735l0 0c0,36 29,66 65,66l0 0c-36,0 -65,29 -65,65l0 0c0,-36 -29,-65 -65,-65l0 0 0 0 0 0c36,0 65,-30 65,-66z"/>
  <path class="fil0" d="M11836 12345l0 0c0,36 29,65 65,65l0 0c-36,0 -65,29 -65,65l0 0c0,-36 -29,-65 -65,-65l0 0 0 0 0 0c36,0 65,-29 65,-65z"/>
  <path class="fil0" d="M11836 12084l0 0c0,36 29,65 65,65l0 0c-36,0 -65,30 -65,65l0 0c0,-35 -29,-65 -65,-65l0 0 0 0 0 0c36,0 65,-29 65,-65l0 0z"/>
  <path class="fil0" d="M11836 11954l0 0c0,36 29,65 65,65l0 0c-36,0 -65,29 -65,65l0 0c0,-36 -29,-65 -65,-65l0 0 0 0 0 0c36,0 65,-29 65,-65l0 0z"/>
  <path class="fil0" d="M11836 11433l0 0c0,36 29,65 65,65l0 0c-36,0 -65,29 -65,65l0 0c0,-36 -29,-65 -65,-65l0 0 0 0 0 0c36,0 65,-29 65,-65l0 0z"/>
  <path class="fil0" d="M11836 11303l0 0c0,36 29,65 65,65l0 0c-36,0 -65,29 -65,65l0 0c0,-36 -29,-65 -65,-65l0 0 0 0 0 0c36,0 65,-29 65,-65z"/>
  <path class="fil0" d="M11966 15471l0 0c0,36 30,65 66,65l0 0c-36,0 -66,29 -66,65l0 0c0,-36 -29,-65 -65,-65l0 0 0 0 0 0c36,0 65,-29 65,-65l0 0z"/>
  <path class="fil0" d="M11966 15340l0 0c0,36 30,66 66,66l0 0c-36,0 -66,29 -66,65l0 0c0,-36 -29,-65 -65,-65l0 0 0 0 0 0c36,0 65,-30 65,-66l0 0z"/>
  <path class="fil0" d="M11966 14950l0 0c0,36 30,65 66,65l0 0c-36,0 -66,29 -66,65l0 0c0,-36 -29,-65 -65,-65l0 0 0 0 0 0c36,0 65,-29 65,-65z"/>
  <path class="fil0" d="M11966 14429l0 0c0,36 30,65 66,65l0 0c-36,0 -66,29 -66,65l0 0c0,-36 -29,-65 -65,-65l0 0 0 0 0 0c36,0 65,-29 65,-65z"/>
  <path class="fil0" d="M11966 14168l0 0c0,36 30,65 66,65l0 0c-36,0 -66,30 -66,65l0 0c0,-35 -29,-65 -65,-65l0 0 0 0 0 0c36,0 65,-29 65,-65z"/>
  <path class="fil0" d="M11966 14038l0 0c0,36 30,65 66,65l0 0c-36,0 -66,29 -66,65l0 0c0,-36 -29,-65 -65,-65l0 0 0 0 0 0c36,0 65,-29 65,-65z"/>
  <path class="fil0" d="M11966 13908l0 0c0,36 30,65 66,65l0 0c-36,0 -66,29 -66,65l0 0c0,-36 -29,-65 -65,-65l0 0 0 0 0 0c36,0 65,-29 65,-65z"/>
  <path class="fil0" d="M11966 13777l0 0c0,36 30,66 66,66l0 0c-36,0 -66,29 -66,65l0 0c0,-36 -29,-65 -65,-65l0 0 0 0 0 0c36,0 65,-30 65,-66z"/>
  <path class="fil0" d="M11966 13387l0 0c0,36 30,65 66,65l0 0c-36,0 -66,29 -66,65l0 0c0,-36 -29,-65 -65,-65l0 0 0 0 0 0c36,0 65,-29 65,-65z"/>
  <path class="fil0" d="M11966 13126l0 0c0,36 30,65 66,65l0 0c-36,0 -66,30 -66,65l0 0c0,-35 -29,-65 -65,-65l0 0 0 0 0 0c36,0 65,-29 65,-65z"/>
  <path class="fil0" d="M11966 12996l0 0c0,36 30,65 66,65l0 0c-36,0 -66,29 -66,65l0 0c0,-36 -29,-65 -65,-65l0 0 0 0 0 0c36,0 65,-29 65,-65z"/>
  <path class="fil0" d="M11966 12605l0 0c0,36 30,65 66,65l0 0c-36,0 -66,30 -66,65l0 0c0,-35 -29,-65 -65,-65l0 0 0 0 0 0c36,0 65,-29 65,-65z"/>
  <path class="fil0" d="M11966 12345l0 0c0,36 30,65 66,65l0 0c-36,0 -66,29 -66,65l0 0c0,-36 -29,-65 -65,-65l0 0 0 0 0 0c36,0 65,-29 65,-65z"/>
  <path class="fil0" d="M12097 15471l0 0c0,36 29,65 65,65l0 0c-36,0 -65,29 -65,65l0 0c0,-36 -30,-65 -65,-65l0 0 0 0 0 0c35,0 65,-29 65,-65l0 0z"/>
  <path class="fil0" d="M12097 15340l0 0c0,36 29,66 65,66l0 0c-36,0 -65,29 -65,65l0 0c0,-36 -30,-65 -65,-65l0 0 0 0 0 0c35,0 65,-30 65,-66l0 0z"/>
  <path class="fil0" d="M12097 14950l0 0c0,36 29,65 65,65l0 0c-36,0 -65,29 -65,65l0 0c0,-36 -30,-65 -65,-65l0 0 0 0 0 0c35,0 65,-29 65,-65z"/>
  <path class="fil0" d="M12097 14689l0 0c0,36 29,65 65,65l0 0c-36,0 -65,30 -65,65l0 0c0,-35 -30,-65 -65,-65l0 0 0 0 0 0c35,0 65,-29 65,-65z"/>
  <path class="fil0" d="M12097 14429l0 0c0,36 29,65 65,65l0 0c-36,0 -65,29 -65,65l0 0c0,-36 -30,-65 -65,-65l0 0 0 0 0 0c35,0 65,-29 65,-65z"/>
  <path class="fil0" d="M12097 14298l0 0c0,36 29,66 65,66l0 0c-36,0 -65,29 -65,65l0 0c0,-36 -30,-65 -65,-65l0 0 0 0 0 0c35,0 65,-30 65,-66z"/>
  <path class="fil0" d="M12097 14168l0 0c0,36 29,65 65,65l0 0c-36,0 -65,30 -65,65l0 0c0,-35 -30,-65 -65,-65l0 0 0 0 0 0c35,0 65,-29 65,-65z"/>
  <path class="fil0" d="M12097 13777l0 0c0,36 29,66 65,66l0 0c-36,0 -65,29 -65,65l0 0c0,-36 -30,-65 -65,-65l0 0 0 0 0 0c35,0 65,-30 65,-66z"/>
  <path class="fil0" d="M12097 13517l0 0c0,36 29,65 65,65l0 0c-36,0 -65,29 -65,65l0 0c0,-36 -30,-65 -65,-65l0 0 0 0 0 0c35,0 65,-29 65,-65z"/>
  <path class="fil0" d="M12097 13256l0 0c0,36 29,66 65,66l0 0c-36,0 -65,29 -65,65l0 0c0,-36 -30,-65 -65,-65l0 0 0 0 0 0c35,0 65,-30 65,-66z"/>
  <path class="fil0" d="M12097 12735l0 0c0,36 29,66 65,66l0 0c-36,0 -65,29 -65,65l0 0c0,-36 -30,-65 -65,-65l0 0 0 0 0 0c35,0 65,-30 65,-66z"/>
  <path class="fil0" d="M12097 12605l0 0c0,36 29,65 65,65l0 0c-36,0 -65,30 -65,65l0 0c0,-35 -30,-65 -65,-65l0 0 0 0 0 0c35,0 65,-29 65,-65z"/>
  <path class="fil0" d="M12097 12345l0 0c0,36 29,65 65,65l0 0c-36,0 -65,29 -65,65l0 0c0,-36 -30,-65 -65,-65l0 0 0 0 0 0c35,0 65,-29 65,-65z"/>
  <path class="fil0" d="M12227 15471l0 0c0,36 29,65 65,65l0 0c-36,0 -65,29 -65,65l0 0c0,-36 -29,-65 -65,-65l0 0 0 0 0 0c36,0 65,-29 65,-65l0 0z"/>
  <path class="fil0" d="M12227 15210l0 0c0,36 29,65 65,65l0 0c-36,0 -65,30 -65,65l0 0c0,-35 -29,-65 -65,-65l0 0 0 0 0 0c36,0 65,-29 65,-65z"/>
  <path class="fil0" d="M12227 14950l0 0c0,36 29,65 65,65l0 0c-36,0 -65,29 -65,65l0 0c0,-36 -29,-65 -65,-65l0 0 0 0 0 0c36,0 65,-29 65,-65z"/>
  <path class="fil0" d="M12227 14429l0 0c0,36 29,65 65,65l0 0c-36,0 -65,29 -65,65l0 0c0,-36 -29,-65 -65,-65l0 0 0 0 0 0c36,0 65,-29 65,-65z"/>
  <path class="fil0" d="M12227 14298l0 0c0,36 29,66 65,66l0 0c-36,0 -65,29 -65,65l0 0c0,-36 -29,-65 -65,-65l0 0 0 0 0 0c36,0 65,-30 65,-66z"/>
  <path class="fil0" d="M12227 14038l0 0c0,36 29,65 65,65l0 0c-36,0 -65,29 -65,65l0 0c0,-36 -29,-65 -65,-65l0 0 0 0 0 0c36,0 65,-29 65,-65z"/>
  <path class="fil0" d="M12227 13908l0 0c0,36 29,65 65,65l0 0c-36,0 -65,29 -65,65l0 0c0,-36 -29,-65 -65,-65l0 0 0 0 0 0c36,0 65,-29 65,-65z"/>
  <path class="fil0" d="M12227 13777l0 0c0,36 29,66 65,66l0 0c-36,0 -65,29 -65,65l0 0c0,-36 -29,-65 -65,-65l0 0 0 0 0 0c36,0 65,-30 65,-66z"/>
  <path class="fil0" d="M12227 13647l0 0c0,36 29,65 65,65l0 0c-36,0 -65,30 -65,65l0 0c0,-35 -29,-65 -65,-65l0 0 0 0 0 0c36,0 65,-29 65,-65z"/>
  <path class="fil0" d="M12227 13517l0 0c0,36 29,65 65,65l0 0c-36,0 -65,29 -65,65l0 0c0,-36 -29,-65 -65,-65l0 0 0 0 0 0c36,0 65,-29 65,-65z"/>
  <path class="fil0" d="M12227 13387l0 0c0,36 29,65 65,65l0 0c-36,0 -65,29 -65,65l0 0c0,-36 -29,-65 -65,-65l0 0 0 0 0 0c36,0 65,-29 65,-65z"/>
  <path class="fil0" d="M12227 12996l0 0c0,36 29,65 65,65l0 0c-36,0 -65,29 -65,65l0 0c0,-36 -29,-65 -65,-65l0 0 0 0 0 0c36,0 65,-29 65,-65z"/>
  <path class="fil0" d="M12227 12866l0 0c0,36 29,65 65,65l0 0c-36,0 -65,29 -65,65l0 0c0,-36 -29,-65 -65,-65l0 0 0 0 0 0c36,0 65,-29 65,-65z"/>
  <path class="fil0" d="M12227 12735l0 0c0,36 29,66 65,66l0 0c-36,0 -65,29 -65,65l0 0c0,-36 -29,-65 -65,-65l0 0 0 0 0 0c36,0 65,-30 65,-66z"/>
  <path class="fil0" d="M12227 12605l0 0c0,36 29,65 65,65l0 0c-36,0 -65,30 -65,65l0 0c0,-35 -29,-65 -65,-65l0 0 0 0 0 0c36,0 65,-29 65,-65z"/>
  <path class="fil0" d="M12357 15471l0 0c0,36 29,65 65,65l0 0c-36,0 -65,29 -65,65l0 0c0,-36 -29,-65 -65,-65l0 0 0 0 0 0c36,0 65,-29 65,-65l0 0z"/>
  <path class="fil0" d="M12357 15340l0 0c0,36 29,66 65,66l0 0c-36,0 -65,29 -65,65l0 0c0,-36 -29,-65 -65,-65l0 0 0 0 0 0c36,0 65,-30 65,-66l0 0z"/>
  <path class="fil0" d="M12357 15210l0 0c0,36 29,65 65,65l0 0c-36,0 -65,30 -65,65l0 0c0,-35 -29,-65 -65,-65l0 0 0 0 0 0c36,0 65,-29 65,-65z"/>
  <path class="fil0" d="M12357 15080l0 0c0,36 29,65 65,65l0 0c-36,0 -65,29 -65,65l0 0c0,-36 -29,-65 -65,-65l0 0 0 0 0 0c36,0 65,-29 65,-65z"/>
  <path class="fil0" d="M12357 14950l0 0c0,36 29,65 65,65l0 0c-36,0 -65,29 -65,65l0 0c0,-36 -29,-65 -65,-65l0 0 0 0 0 0c36,0 65,-29 65,-65z"/>
  <path class="fil0" d="M12357 14819l0 0c0,36 29,66 65,66l0 0c-36,0 -65,29 -65,65l0 0c0,-36 -29,-65 -65,-65l0 0 0 0 0 0c36,0 65,-30 65,-66z"/>
  <path class="fil0" d="M12357 14689l0 0c0,36 29,65 65,65l0 0c-36,0 -65,30 -65,65l0 0c0,-35 -29,-65 -65,-65l0 0 0 0 0 0c36,0 65,-29 65,-65z"/>
  <path class="fil0" d="M12357 14559l0 0c0,36 29,65 65,65l0 0c-36,0 -65,29 -65,65l0 0c0,-36 -29,-65 -65,-65l0 0 0 0 0 0c36,0 65,-29 65,-65z"/>
  <path class="fil0" d="M12357 14429l0 0c0,36 29,65 65,65l0 0c-36,0 -65,29 -65,65l0 0c0,-36 -29,-65 -65,-65l0 0 0 0 0 0c36,0 65,-29 65,-65z"/>
  <path class="fil0" d="M12357 14298l0 0c0,36 29,66 65,66l0 0c-36,0 -65,29 -65,65l0 0c0,-36 -29,-65 -65,-65l0 0 0 0 0 0c36,0 65,-30 65,-66z"/>
  <path class="fil0" d="M12357 14168l0 0c0,36 29,65 65,65l0 0c-36,0 -65,30 -65,65l0 0c0,-35 -29,-65 -65,-65l0 0 0 0 0 0c36,0 65,-29 65,-65z"/>
  <path class="fil0" d="M12357 13908l0 0c0,36 29,65 65,65l0 0c-36,0 -65,29 -65,65l0 0c0,-36 -29,-65 -65,-65l0 0 0 0 0 0c36,0 65,-29 65,-65z"/>
  <path class="fil0" d="M12357 13647l0 0c0,36 29,65 65,65l0 0c-36,0 -65,30 -65,65l0 0c0,-35 -29,-65 -65,-65l0 0 0 0 0 0c36,0 65,-29 65,-65z"/>
  <path class="fil0" d="M12357 13256l0 0c0,36 29,66 65,66l0 0c-36,0 -65,29 -65,65l0 0c0,-36 -29,-65 -65,-65l0 0 0 0 0 0c36,0 65,-30 65,-66z"/>
  <path class="fil0" d="M12357 12996l0 0c0,36 29,65 65,65l0 0c-36,0 -65,29 -65,65l0 0c0,-36 -29,-65 -65,-65l0 0 0 0 0 0c36,0 65,-29 65,-65z"/>
  <path class="fil0" d="M12357 12735l0 0c0,36 29,66 65,66l0 0c-36,0 -65,29 -65,65l0 0c0,-36 -29,-65 -65,-65l0 0 0 0 0 0c36,0 65,-30 65,-66z"/>
  <path class="fil0" d="M12357 12605l0 0c0,36 29,65 65,65l0 0c-36,0 -65,30 -65,65l0 0c0,-35 -29,-65 -65,-65l0 0 0 0 0 0c36,0 65,-29 65,-65z"/>
  <path class="fil0" d="M12357 12345l0 0c0,36 29,65 65,65l0 0c-36,0 -65,29 -65,65l0 0c0,-36 -29,-65 -65,-65l0 0 0 0 0 0c36,0 65,-29 65,-65z"/>
  <path class="fil0" d="M12487 15340l0 0c0,36 29,66 65,66l0 0c-35,0 -65,29 -65,65l0 0c0,-36 -29,-65 -65,-65l0 0 0 0 0 0c36,0 65,-30 65,-66l0 0z"/>
  <path class="fil0" d="M12487 14819l0 0c0,36 29,66 65,66l0 0c-35,0 -65,29 -65,65l0 0c0,-36 -29,-65 -65,-65l0 0 0 0 0 0c36,0 65,-30 65,-66z"/>
  <path class="fil0" d="M12487 14429l0 0c0,36 29,65 65,65l0 0c-35,0 -65,29 -65,65l0 0c0,-36 -29,-65 -65,-65l0 0 0 0 0 0c36,0 65,-29 65,-65z"/>
  <path class="fil0" d="M12487 14168l0 0c0,36 29,65 65,65l0 0c-35,0 -65,30 -65,65l0 0c0,-35 -29,-65 -65,-65l0 0 0 0 0 0c36,0 65,-29 65,-65z"/>
  <path class="fil0" d="M12487 14038l0 0c0,36 29,65 65,65l0 0c-35,0 -65,29 -65,65l0 0c0,-36 -29,-65 -65,-65l0 0 0 0 0 0c36,0 65,-29 65,-65z"/>
  <path class="fil0" d="M12487 13777l0 0c0,36 29,66 65,66l0 0c-35,0 -65,29 -65,65l0 0c0,-36 -29,-65 -65,-65l0 0 0 0 0 0c36,0 65,-30 65,-66z"/>
  <path class="fil0" d="M12487 13647l0 0c0,36 29,65 65,65l0 0c-35,0 -65,30 -65,65l0 0c0,-35 -29,-65 -65,-65l0 0 0 0 0 0c36,0 65,-29 65,-65z"/>
  <path class="fil0" d="M12487 12866l0 0c0,36 29,65 65,65l0 0c-35,0 -65,29 -65,65l0 0c0,-36 -29,-65 -65,-65l0 0 0 0 0 0c36,0 65,-29 65,-65z"/>
  <path class="fil0" d="M12487 12605l0 0c0,36 29,65 65,65l0 0c-35,0 -65,30 -65,65l0 0c0,-35 -29,-65 -65,-65l0 0 0 0 0 0c36,0 65,-29 65,-65z"/>
  <path class="fil0" d="M12487 12475l0 0c0,36 29,65 65,65l0 0c-35,0 -65,29 -65,65l0 0c0,-36 -29,-65 -65,-65l0 0 0 0 0 0c36,0 65,-29 65,-65z"/>
  <path class="fil0" d="M12618 15210l0 0c0,36 29,65 65,65l0 0c-36,0 -65,30 -65,65l0 0c0,-35 -30,-65 -66,-65l0 0 0 0 0 0c36,0 66,-29 66,-65z"/>
  <path class="fil0" d="M12618 14950l0 0c0,36 29,65 65,65l0 0c-36,0 -65,29 -65,65l0 0c0,-36 -30,-65 -66,-65l0 0 0 0 0 0c36,0 66,-29 66,-65z"/>
  <path class="fil0" d="M12618 14689l0 0c0,36 29,65 65,65l0 0c-36,0 -65,30 -65,65l0 0c0,-35 -30,-65 -66,-65l0 0 0 0 0 0c36,0 66,-29 66,-65z"/>
  <path class="fil0" d="M12618 14298l0 0c0,36 29,66 65,66l0 0c-36,0 -65,29 -65,65l0 0c0,-36 -30,-65 -66,-65l0 0 0 0 0 0c36,0 66,-30 66,-66z"/>
  <path class="fil0" d="M12618 14168l0 0c0,36 29,65 65,65l0 0c-36,0 -65,30 -65,65l0 0c0,-35 -30,-65 -66,-65l0 0 0 0 0 0c36,0 66,-29 66,-65z"/>
  <path class="fil0" d="M12618 14038l0 0c0,36 29,65 65,65l0 0c-36,0 -65,29 -65,65l0 0c0,-36 -30,-65 -66,-65l0 0 0 0 0 0c36,0 66,-29 66,-65z"/>
  <path class="fil0" d="M12618 13908l0 0c0,36 29,65 65,65l0 0c-36,0 -65,29 -65,65l0 0c0,-36 -30,-65 -66,-65l0 0 0 0 0 0c36,0 66,-29 66,-65z"/>
  <path class="fil0" d="M12618 13777l0 0c0,36 29,66 65,66l0 0c-36,0 -65,29 -65,65l0 0c0,-36 -30,-65 -66,-65l0 0 0 0 0 0c36,0 66,-30 66,-66z"/>
  <path class="fil0" d="M12618 13647l0 0c0,36 29,65 65,65l0 0c-36,0 -65,30 -65,65l0 0c0,-35 -30,-65 -66,-65l0 0 0 0 0 0c36,0 66,-29 66,-65z"/>
  <path class="fil0" d="M12618 13126l0 0c0,36 29,65 65,65l0 0c-36,0 -65,30 -65,65l0 0c0,-35 -30,-65 -66,-65l0 0 0 0 0 0c36,0 66,-29 66,-65z"/>
  <path class="fil0" d="M12618 12605l0 0c0,36 29,65 65,65l0 0c-36,0 -65,30 -65,65l0 0c0,-35 -30,-65 -66,-65l0 0 0 0 0 0c36,0 66,-29 66,-65z"/>
  <path class="fil0" d="M12618 12475l0 0c0,36 29,65 65,65l0 0c-36,0 -65,29 -65,65l0 0c0,-36 -30,-65 -66,-65l0 0 0 0 0 0c36,0 66,-29 66,-65z"/>
  <path class="fil0" d="M12748 15340l0 0c0,36 29,66 65,66l0 0c-36,0 -65,29 -65,65l0 0c0,-36 -29,-65 -65,-65l0 0 0 0 0 0c36,0 65,-30 65,-66l0 0z"/>
  <path class="fil0" d="M12748 14559l0 0c0,36 29,65 65,65l0 0c-36,0 -65,29 -65,65l0 0c0,-36 -29,-65 -65,-65l0 0 0 0 0 0c36,0 65,-29 65,-65z"/>
  <path class="fil0" d="M12748 14298l0 0c0,36 29,66 65,66l0 0c-36,0 -65,29 -65,65l0 0c0,-36 -29,-65 -65,-65l0 0 0 0 0 0c36,0 65,-30 65,-66z"/>
  <path class="fil0" d="M12748 14168l0 0c0,36 29,65 65,65l0 0c-36,0 -65,30 -65,65l0 0c0,-35 -29,-65 -65,-65l0 0 0 0 0 0c36,0 65,-29 65,-65z"/>
  <path class="fil0" d="M12748 13517l0 0c0,36 29,65 65,65l0 0c-36,0 -65,29 -65,65l0 0c0,-36 -29,-65 -65,-65l0 0 0 0 0 0c36,0 65,-29 65,-65z"/>
  <path class="fil0" d="M12748 12866l0 0c0,36 29,65 65,65l0 0c-36,0 -65,29 -65,65l0 0c0,-36 -29,-65 -65,-65l0 0 0 0 0 0c36,0 65,-29 65,-65z"/>
  <path class="fil0" d="M12748 12735l0 0c0,36 29,66 65,66l0 0c-36,0 -65,29 -65,65l0 0c0,-36 -29,-65 -65,-65l0 0 0 0 0 0c36,0 65,-30 65,-66z"/>
  <path class="fil0" d="M12748 12605l0 0c0,36 29,65 65,65l0 0c-36,0 -65,30 -65,65l0 0c0,-35 -29,-65 -65,-65l0 0 0 0 0 0c36,0 65,-29 65,-65z"/>
  <path class="fil0" d="M12748 12475l0 0c0,36 29,65 65,65l0 0c-36,0 -65,29 -65,65l0 0c0,-36 -29,-65 -65,-65l0 0 0 0 0 0c36,0 65,-29 65,-65z"/>
  <path class="fil0" d="M12878 14950l0 0c0,36 29,65 65,65l0 0c-36,0 -65,29 -65,65l0 0c0,-36 -29,-65 -65,-65l0 0 0 0 0 0c36,0 65,-29 65,-65z"/>
  <path class="fil0" d="M12878 14819l0 0c0,36 29,66 65,66l0 0c-36,0 -65,29 -65,65l0 0c0,-36 -29,-65 -65,-65l0 0 0 0 0 0c36,0 65,-30 65,-66z"/>
  <path class="fil0" d="M12878 14689l0 0c0,36 29,65 65,65l0 0c-36,0 -65,30 -65,65l0 0c0,-35 -29,-65 -65,-65l0 0 0 0 0 0c36,0 65,-29 65,-65z"/>
  <path class="fil0" d="M12878 14298l0 0c0,36 29,66 65,66l0 0c-36,0 -65,29 -65,65l0 0c0,-36 -29,-65 -65,-65l0 0 0 0 0 0c36,0 65,-30 65,-66z"/>
  <path class="fil0" d="M12878 14038l0 0c0,36 29,65 65,65l0 0c-36,0 -65,29 -65,65l0 0c0,-36 -29,-65 -65,-65l0 0 0 0 0 0c36,0 65,-29 65,-65z"/>
  <path class="fil0" d="M12878 13647l0 0c0,36 29,65 65,65l0 0c-36,0 -65,30 -65,65l0 0c0,-35 -29,-65 -65,-65l0 0 0 0 0 0c36,0 65,-29 65,-65z"/>
  <path class="fil0" d="M12878 13256l0 0c0,36 29,66 65,66l0 0c-36,0 -65,29 -65,65l0 0c0,-36 -29,-65 -65,-65l0 0 0 0 0 0c36,0 65,-30 65,-66z"/>
  <path class="fil0" d="M12878 12996l0 0c0,36 29,65 65,65l0 0c-36,0 -65,29 -65,65l0 0c0,-36 -29,-65 -65,-65l0 0 0 0 0 0c36,0 65,-29 65,-65z"/>
  <path class="fil0" d="M12878 12735l0 0c0,36 29,66 65,66l0 0c-36,0 -65,29 -65,65l0 0c0,-36 -29,-65 -65,-65l0 0 0 0 0 0c36,0 65,-30 65,-66z"/>
  <path class="fil0" d="M8710 14428l0 0c0,36 29,65 65,65l0 0c-36,0 -65,29 -65,65l0 0c0,-36 -29,-65 -65,-65l0 0 0 0 0 0c36,0 65,-29 65,-65z"/>
  <path class="fil0" d="M8971 14428l0 0c0,36 29,65 65,65l0 0c-36,0 -65,29 -65,65l0 0c0,-36 -30,-65 -66,-65l0 0 0 0 0 0c36,0 66,-29 66,-65z"/>
  <path class="fil0" d="M9101 14428l0 0c0,36 29,65 65,65l0 0c-36,0 -65,29 -65,65l0 0c0,-36 -29,-65 -65,-65l0 0 0 0 0 0c36,0 65,-29 65,-65z"/>
  <path class="fil0" d="M9492 14428l0 0c0,36 29,65 65,65l0 0c-36,0 -65,29 -65,65l0 0c-1,-36 -30,-65 -66,-65l0 0 0 0 0 0c36,0 66,-29 66,-65z"/>
  <path class="fil0" d="M9622 14428l0 0c0,36 29,65 65,65l0 0c-36,0 -65,29 -65,65l0 0c0,-36 -29,-65 -65,-65l0 0 0 0 0 0c36,0 65,-29 65,-65z"/>
  <path class="fil0" d="M8840 14298l0 0c0,36 30,65 65,65l0 0c-35,0 -65,29 -65,65l0 0c0,-36 -29,-65 -65,-65l0 0 0 0 0 0c36,0 65,-29 65,-65z"/>
  <path class="fil0" d="M8971 14298l0 0c0,36 29,65 65,65l0 0c-36,0 -65,29 -65,65l0 0c0,-36 -30,-65 -66,-65l0 0 0 0 0 0c36,0 66,-29 66,-65z"/>
  <path class="fil0" d="M8971 14167l0 0c0,36 29,65 65,66l0 0c-36,0 -65,29 -65,65l0 0c0,-36 -30,-65 -66,-65l0 0 0 0 0 0c36,0 66,-30 66,-66z"/>
  <path class="fil0" d="M9231 14167l0 0c0,36 29,65 65,66l0 0c-36,0 -65,29 -65,65l0 0c0,-36 -29,-65 -65,-65l0 0 0 0 0 0c36,0 65,-30 65,-66z"/>
  <path class="fil0" d="M9492 14167l0 0c0,36 29,65 65,66l0 0c-36,0 -65,29 -65,65l0 0c-1,-36 -30,-65 -66,-65l0 0 0 0 0 0c36,0 66,-30 66,-66z"/>
  <path class="fil0" d="M9622 14167l0 0c0,36 29,65 65,66l0 0c-36,0 -65,29 -65,65l0 0c0,-36 -29,-65 -65,-65l0 0 0 0 0 0c36,0 65,-30 65,-66z"/>
  <path class="fil0" d="M8710 14037l0 0c0,36 29,65 65,65l0 0c-36,0 -65,29 -65,65l0 0c0,-36 -29,-65 -65,-65l0 0 0 0 0 0c36,0 65,-29 65,-65z"/>
  <path class="fil0" d="M8840 14037l0 0c0,36 30,65 65,65l0 0c-35,0 -65,29 -65,65l0 0c0,-36 -29,-65 -65,-65l0 0 0 0 0 0c36,0 65,-29 65,-65z"/>
  <path class="fil0" d="M8971 14037l0 0c0,36 29,65 65,65l0 0c-36,0 -65,29 -65,65l0 0c0,-36 -30,-65 -66,-65l0 0 0 0 0 0c36,0 66,-29 66,-65z"/>
  <path class="fil0" d="M8710 13907l0 0c0,36 29,65 65,65l0 0c-36,0 -65,29 -65,65l0 0c0,-36 -29,-65 -65,-65l0 0 0 0 0 0c36,0 65,-29 65,-65z"/>
  <path class="fil0" d="M8840 13907l0 0c0,36 30,65 65,65l0 0c-35,0 -65,29 -65,65l0 0c0,-36 -29,-65 -65,-65l0 0 0 0 0 0c36,0 65,-29 65,-65z"/>
  <path class="fil0" d="M9492 13907l0 0c0,36 29,65 65,65l0 0c-36,0 -65,29 -65,65l0 0c-1,-36 -30,-65 -66,-65l0 0 0 0 0 0c36,0 66,-29 66,-65z"/>
  <path class="fil0" d="M9622 13907l0 0c0,36 29,65 65,65l0 0c-36,0 -65,29 -65,65l0 0c0,-36 -29,-65 -65,-65l0 0 0 0 0 0c36,0 65,-29 65,-65z"/>
  <path class="fil0" d="M8971 13777l0 0c0,36 29,65 65,65l0 0c-36,0 -65,29 -65,65l0 0c0,-36 -30,-65 -66,-65l0 0 0 0 0 0c36,0 66,-29 66,-65z"/>
  <path class="fil0" d="M9231 13777l0 0c0,36 29,65 65,65l0 0c-36,0 -65,29 -65,65l0 0c0,-36 -29,-65 -65,-65l0 0 0 0 0 0c36,0 65,-29 65,-65z"/>
  <path class="fil0" d="M9361 13777l0 0c0,36 29,65 65,65l0 0c-36,0 -65,29 -65,65l0 0c0,-36 -29,-65 -65,-65l0 0 0 0 0 0c36,0 65,-29 65,-65z"/>
  <path class="fil0" d="M8710 13646l0 0c0,36 29,65 65,66l0 0c-36,0 -65,29 -65,65l0 0c0,-36 -29,-65 -65,-65l0 0 0 0 0 0c36,0 65,-30 65,-66z"/>
  <path class="fil0" d="M9101 13646l0 0c0,36 29,65 65,66l0 0c-36,0 -65,29 -65,65l0 0c0,-36 -29,-65 -65,-65l0 0 0 0 0 0c36,0 65,-30 65,-66z"/>
  <path class="fil0" d="M9361 13646l0 0c0,36 29,65 65,66l0 0c-36,0 -65,29 -65,65l0 0c0,-36 -29,-65 -65,-65l0 0 0 0 0 0c36,0 65,-30 65,-66z"/>
  <path class="fil0" d="M9492 13646l0 0c0,36 29,65 65,66l0 0c-36,0 -65,29 -65,65l0 0c-1,-36 -30,-65 -66,-65l0 0 0 0 0 0c36,0 66,-30 66,-66z"/>
  <path class="fil0" d="M9622 13646l0 0c0,36 29,65 65,66l0 0c-36,0 -65,29 -65,65l0 0c0,-36 -29,-65 -65,-65l0 0 0 0 0 0c36,0 65,-30 65,-66z"/>
  <path class="fil0" d="M9101 13516l0 0c0,36 29,65 65,65l0 0c-36,0 -65,29 -65,65l0 0c0,-36 -29,-65 -65,-65l0 0 0 0 0 0c36,0 65,-29 65,-65z"/>
  <path class="fil0" d="M9622 13516l0 0c0,36 29,65 65,65l0 0c-36,0 -65,29 -65,65l0 0c0,-36 -29,-65 -65,-65l0 0 0 0 0 0c36,0 65,-29 65,-65z"/>
  <path class="fil0" d="M8710 13386l0 0c0,36 29,65 65,65l0 0c-36,0 -65,29 -65,65l0 0c0,-36 -29,-65 -65,-65l0 0 0 0 0 0c36,0 65,-29 65,-65z"/>
  <path class="fil0" d="M8840 13386l0 0c0,36 30,65 65,65l0 0c-35,0 -65,29 -65,65l0 0c0,-36 -29,-65 -65,-65l0 0 0 0 0 0c36,0 65,-29 65,-65z"/>
  <path class="fil0" d="M8971 13386l0 0c0,36 29,65 65,65l0 0c-36,0 -65,29 -65,65l0 0c0,-36 -30,-65 -66,-65l0 0 0 0 0 0c36,0 66,-29 66,-65z"/>
  <path class="fil0" d="M9101 13386l0 0c0,36 29,65 65,65l0 0c-36,0 -65,29 -65,65l0 0c0,-36 -29,-65 -65,-65l0 0 0 0 0 0c36,0 65,-29 65,-65z"/>
  <path class="fil0" d="M9231 13386l0 0c0,36 29,65 65,65l0 0c-36,0 -65,29 -65,65l0 0c0,-36 -29,-65 -65,-65l0 0 0 0 0 0c36,0 65,-29 65,-65z"/>
  <path class="fil0" d="M9361 13386l0 0c0,36 29,65 65,65l0 0c-36,0 -65,29 -65,65l0 0c0,-36 -29,-65 -65,-65l0 0 0 0 0 0c36,0 65,-29 65,-65z"/>
  <path class="fil0" d="M9492 13386l0 0c0,36 29,65 65,65l0 0c-36,0 -65,29 -65,65l0 0c-1,-36 -30,-65 -66,-65l0 0 0 0 0 0c36,0 66,-29 66,-65z"/>
  <path class="fil0" d="M8710 13256l0 0c0,36 29,65 65,65l0 0c-36,0 -65,29 -65,65l0 0c0,-36 -29,-65 -65,-65l0 0 0 0 0 0c36,0 65,-29 65,-65z"/>
  <path class="fil0" d="M8971 13256l0 0c0,36 29,65 65,65l0 0c-36,0 -65,29 -65,65l0 0c0,-36 -30,-65 -66,-65l0 0 0 0 0 0c36,0 66,-29 66,-65z"/>
  <path class="fil0" d="M9231 13256l0 0c0,36 29,65 65,65l0 0c-36,0 -65,29 -65,65l0 0c0,-36 -29,-65 -65,-65l0 0 0 0 0 0c36,0 65,-29 65,-65z"/>
  <path class="fil0" d="M9622 13256l0 0c0,36 29,65 65,65l0 0c-36,0 -65,29 -65,65l0 0c0,-36 -29,-65 -65,-65l0 0 0 0 0 0c36,0 65,-29 65,-65z"/>
  <path class="fil0" d="M8710 13125l0 0c0,36 29,65 65,65l0 1c-36,0 -65,29 -65,65l0 0c0,-36 -29,-65 -65,-65l0 0 0 -1 0 0c36,0 65,-29 65,-65z"/>
  <path class="fil0" d="M9101 13125l0 0c0,36 29,65 65,65l0 1c-36,0 -65,29 -65,65l0 0c0,-36 -29,-65 -65,-65l0 0 0 -1 0 0c36,0 65,-29 65,-65z"/>
  <path class="fil0" d="M9361 13125l0 0c0,36 29,65 65,65l0 1c-36,0 -65,29 -65,65l0 0c0,-36 -29,-65 -65,-65l0 0 0 -1 0 0c36,0 65,-29 65,-65z"/>
  <path class="fil0" d="M9492 13125l0 0c0,36 29,65 65,65l0 1c-36,0 -65,29 -65,65l0 0c-1,-36 -30,-65 -66,-65l0 0 0 -1 0 0c36,0 66,-29 66,-65z"/>
  <path class="fil0" d="M9622 13125l0 0c0,36 29,65 65,65l0 1c-36,0 -65,29 -65,65l0 0c0,-36 -29,-65 -65,-65l0 0 0 -1 0 0c36,0 65,-29 65,-65z"/>
  <path class="fil0" d="M8840 12995l0 0c0,36 30,65 65,65l0 0c-35,0 -65,29 -65,65l0 0c0,-36 -29,-65 -65,-65l0 0 0 0 0 0c36,0 65,-29 65,-65z"/>
  <path class="fil0" d="M8971 12995l0 0c0,36 29,65 65,65l0 0c-36,0 -65,29 -65,65l0 0c0,-36 -30,-65 -66,-65l0 0 0 0 0 0c36,0 66,-29 66,-65z"/>
  <path class="fil0" d="M9231 12995l0 0c0,36 29,65 65,65l0 0c-36,0 -65,29 -65,65l0 0c0,-36 -29,-65 -65,-65l0 0 0 0 0 0c36,0 65,-29 65,-65z"/>
  <path class="fil0" d="M9361 12995l0 0c0,36 29,65 65,65l0 0c-36,0 -65,29 -65,65l0 0c0,-36 -29,-65 -65,-65l0 0 0 0 0 0c36,0 65,-29 65,-65z"/>
  <path class="fil0" d="M8840 12865l0 0c0,36 30,65 65,65l0 0c-35,0 -65,29 -65,65l0 0c0,-36 -29,-65 -65,-65l0 0 0 0 0 0c36,0 65,-29 65,-65z"/>
  <path class="fil0" d="M9101 12865l0 0c0,36 29,65 65,65l0 0c-36,0 -65,29 -65,65l0 0c0,-36 -29,-65 -65,-65l0 0 0 0 0 0c36,0 65,-29 65,-65z"/>
  <path class="fil0" d="M9361 12865l0 0c0,36 29,65 65,65l0 0c-36,0 -65,29 -65,65l0 0c0,-36 -29,-65 -65,-65l0 0 0 0 0 0c36,0 65,-29 65,-65z"/>
  <path class="fil0" d="M9492 12865l0 0c0,36 29,65 65,65l0 0c-36,0 -65,29 -65,65l0 0c-1,-36 -30,-65 -66,-65l0 0 0 0 0 0c36,0 66,-29 66,-65z"/>
  <path class="fil0" d="M9622 12865l0 0c0,36 29,65 65,65l0 0c-36,0 -65,29 -65,65l0 0c0,-36 -29,-65 -65,-65l0 0 0 0 0 0c36,0 65,-29 65,-65z"/>
  <path class="fil0" d="M8710 12735l0 0c0,36 29,65 65,65l0 0c-36,0 -65,29 -65,65l0 0c0,-36 -29,-65 -65,-65l0 0 0 0 0 0c36,0 65,-29 65,-65z"/>
  <path class="fil0" d="M9231 12735l0 0c0,36 29,65 65,65l0 0c-36,0 -65,29 -65,65l0 0c0,-36 -29,-65 -65,-65l0 0 0 0 0 0c36,0 65,-29 65,-65z"/>
  <path class="fil0" d="M8840 12604l0 0c0,36 30,65 65,65l0 1c-35,0 -65,29 -65,65l0 0c0,-36 -29,-65 -65,-65l0 0 0 -1 0 0c36,0 65,-29 65,-65z"/>
  <path class="fil0" d="M8971 12604l0 0c0,36 29,65 65,65l0 1c-36,0 -65,29 -65,65l0 0c0,-36 -30,-65 -66,-65l0 0 0 -1 0 0c36,0 66,-29 66,-65z"/>
  <path class="fil0" d="M9492 12604l0 0c0,36 29,65 65,65l0 1c-36,0 -65,29 -65,65l0 0c-1,-36 -30,-65 -66,-65l0 0 0 -1 0 0c36,0 66,-29 66,-65z"/>
  <path class="fil0" d="M9622 12604l0 0c0,36 29,65 65,65l0 1c-36,0 -65,29 -65,65l0 0c0,-36 -29,-65 -65,-65l0 0 0 -1 0 0c36,0 65,-29 65,-65z"/>
  <path class="fil0" d="M8840 12474l0 0c0,36 30,65 65,65l0 0c-35,0 -65,29 -65,65l0 0c0,-36 -29,-65 -65,-65l0 0 0 0 0 0c36,0 65,-29 65,-65z"/>
  <path class="fil0" d="M8971 12474l0 0c0,36 29,65 65,65l0 0c-36,0 -65,29 -65,65l0 0c0,-36 -30,-65 -66,-65l0 0 0 0 0 0c36,0 66,-29 66,-65z"/>
  <path class="fil0" d="M9231 12474l0 0c0,36 29,65 65,65l0 0c-36,0 -65,29 -65,65l0 0c0,-36 -29,-65 -65,-65l0 0 0 0 0 0c36,0 65,-29 65,-65z"/>
  <path class="fil0" d="M9622 12474l0 0c0,36 29,65 65,65l0 0c-36,0 -65,29 -65,65l0 0c0,-36 -29,-65 -65,-65l0 0 0 0 0 0c36,0 65,-29 65,-65z"/>
  <path class="fil0" d="M8971 12344l0 0c0,36 29,65 65,65l0 0c-36,0 -65,29 -65,65l0 0c0,-36 -30,-65 -66,-65l0 0 0 0 0 0c36,0 66,-29 66,-65z"/>
  <path class="fil0" d="M9101 12344l0 0c0,36 29,65 65,65l0 0c-36,0 -65,29 -65,65l0 0c0,-36 -29,-65 -65,-65l0 0 0 0 0 0c36,0 65,-29 65,-65z"/>
  <path class="fil0" d="M9492 12344l0 0c0,36 29,65 65,65l0 0c-36,0 -65,29 -65,65l0 0c-1,-36 -30,-65 -66,-65l0 0 0 0 0 0c36,0 66,-29 66,-65z"/>
  <path class="fil0" d="M9622 12344l0 0c0,36 29,65 65,65l0 0c-36,0 -65,29 -65,65l0 0c0,-36 -29,-65 -65,-65l0 0 0 0 0 0c36,0 65,-29 65,-65z"/>
  <path class="fil0" d="M9428 11301l-130 0 -131 0 0 0 -130 0 -130 0 -130 0 -131 0 0 130 0 131 0 130 0 130 0 131 0 130 0 130 131 0 130 0 130 0 130 0 0 0 131 0 130 0 129 0 0 -912 -129 0zm0 261l0 130 0 130 0 131 0 130 -130 0 -131 0 0 0 -130 0 -130 0 -130 0 0 -130 0 -131 0 -130 0 -130 0 -131 130 0 130 0 130 0 0 0 131 0 130 0 0 131z"/>
  <polygon class="fil0" points="9166,11562 9166,11562 9036,11562 8906,11562 8906,11692 8906,11822 8906,11953 9036,11953 9166,11953 9166,11953 9296,11953 9296,11822 9296,11692 9296,11562 "/>
  <path class="fil0" d="M12816 11301l-130 0 -131 0 0 0 -130 0 -130 0 -130 0 -131 0 0 130 0 131 0 130 0 130 0 131 0 130 0 130 131 0 130 0 130 0 130 0 0 0 131 0 130 0 129 0 0 -912 -129 0zm0 261l0 130 0 130 0 131 0 130 -130 0 -131 0 0 0 -130 0 -130 0 -130 0 0 -130 0 -131 0 -130 0 -130 0 -131 130 0 130 0 130 0 0 0 131 0 130 0 0 131z"/>
  <polygon class="fil0" points="12554,11562 12554,11562 12424,11562 12294,11562 12294,11692 12294,11822 12294,11953 12424,11953 12554,11953 12554,11953 12684,11953 12684,11822 12684,11692 12684,11562 "/>
  <path class="fil0" d="M9427 14689l-130 0 -130 0 0 0 -131 0 -130 0 -130 0 -130 0 0 130 0 130 0 131 0 130 0 130 0 131 0 130 130 0 130 0 130 0 131 0 0 0 130 0 130 0 129 0 0 -912 -129 0zm0 260l0 131 0 130 0 130 0 131 -130 0 -130 0 0 0 -131 0 -130 0 -130 0 0 -131 0 -130 0 -130 0 -131 0 -130 130 0 130 0 131 0 0 0 130 0 130 0 0 130z"/>
  <polygon class="fil0" points="9165,14949 9165,14949 9035,14949 8905,14949 8905,15080 8905,15210 8905,15340 9035,15340 9165,15340 9165,15340 9296,15340 9296,15210 9296,15080 9296,14949 "/>
  <path class="fil1" d="M8882 16179c26,-36 53,-64 84,-84 30,-20 60,-30 91,-30 45,0 68,31 68,93l0 21c23,-35 48,-63 76,-83 28,-21 54,-31 79,-31 25,0 45,11 60,33 15,22 23,52 23,89 0,14 -1,27 -2,41l-13 178 -2 24 3 10c3,9 9,13 17,13 18,0 35,-14 53,-43 5,-6 9,-9 14,-9 7,0 11,4 11,13 0,13 -11,32 -33,58 -29,33 -57,50 -86,50 -28,0 -42,-26 -42,-78 0,-9 1,-22 2,-38l13 -178c0,-11 1,-20 1,-28 0,-58 -19,-87 -57,-87 -27,0 -51,19 -71,58 -21,39 -35,90 -43,153l-21 170c-1,11 -4,19 -9,22 -5,4 -15,6 -28,6 -18,0 -27,-6 -27,-18l1 -10 30 -248c1,-14 2,-31 2,-50 0,-26 -6,-46 -17,-62 -12,-15 -28,-22 -48,-22 -28,0 -53,18 -77,56 -23,37 -38,83 -44,137l-22 189c-1,11 -4,19 -9,22 -5,4 -15,6 -28,6 -18,0 -27,-6 -27,-18 0,-2 0,-5 1,-10l31 -267c2,-11 2,-20 2,-28 0,-37 -8,-55 -23,-57 -16,-1 -31,16 -45,51 -3,8 -7,13 -10,12 -6,0 -9,-6 -9,-17 0,-24 10,-51 31,-79 20,-29 39,-43 57,-43 29,0 43,38 43,113zm712 174l-17 141 0 6c-2,15 -13,22 -34,22 -20,0 -29,-6 -29,-18 0,-4 0,-8 0,-10l81 -681c2,-16 3,-26 3,-32 0,-12 -10,-18 -29,-18l-27 0c-15,0 -22,-4 -22,-11 1,-8 8,-13 22,-13 42,-2 71,-5 89,-9 10,-2 19,-4 26,-4 6,0 9,5 10,13l0 7 -63 523c0,3 0,5 -1,7l0 5c0,6 1,8 5,9 2,0 6,-2 12,-7l7 -5 33 -25c60,-45 98,-91 115,-138 8,-22 14,-36 21,-43 6,-7 15,-11 27,-11 20,0 31,12 31,35 0,34 -40,80 -120,138 -17,12 -26,20 -26,23 0,2 1,5 5,9 9,12 18,27 27,43l60 111c10,16 18,24 27,24 8,0 17,-5 27,-14 11,-10 20,-21 26,-33 7,-15 13,-22 19,-21 5,0 8,4 8,11 0,25 -12,54 -34,86 -23,33 -43,49 -60,49 -17,0 -32,-13 -46,-37l-95 -176c-5,-10 -11,-16 -15,-16 -4,0 -9,2 -14,5l-21 12c-16,9 -26,24 -28,43zm653 47c-62,84 -127,126 -193,126 -26,0 -47,-10 -64,-31 -17,-21 -25,-48 -25,-81 0,-44 10,-90 30,-140 20,-49 46,-92 78,-128 48,-53 98,-80 151,-80 18,0 38,3 60,11 8,2 15,4 19,4 11,0 24,-13 39,-39 8,-13 14,-19 19,-18 4,0 7,4 7,10 0,3 -1,6 -2,10 -1,2 -3,13 -7,31l-13 61c-7,35 -14,80 -22,135 -7,54 -11,92 -11,112 0,46 7,69 21,69 8,0 17,-6 29,-18 11,-13 20,-26 26,-40 5,-12 10,-18 16,-18 6,0 9,3 9,11 0,24 -14,52 -43,85 -29,33 -53,50 -73,50 -14,0 -25,-9 -31,-25 -7,-17 -14,-49 -20,-97zm-23 -310c-38,0 -74,22 -108,67 -23,29 -42,66 -58,111 -16,45 -23,84 -23,119 0,56 23,83 71,83 30,0 61,-16 93,-50 31,-34 49,-69 54,-107 2,-21 5,-38 8,-52l10 -50c6,-28 10,-47 13,-57 2,-10 3,-19 3,-27 0,-10 -6,-18 -19,-26 -14,-7 -28,-11 -44,-11zm373 118l76 86c24,27 36,59 36,97 0,38 -14,70 -43,96 -29,26 -64,39 -105,39 -32,0 -58,-6 -81,-20 -22,-13 -33,-29 -33,-48 0,-23 11,-34 33,-34 13,0 25,9 36,28l11 20c10,18 24,27 44,27 21,0 39,-7 54,-21 16,-14 23,-31 23,-50 0,-30 -14,-61 -43,-92l-60 -65c-28,-30 -42,-62 -42,-96 0,-36 12,-64 36,-84 24,-21 56,-31 98,-31 58,0 87,18 87,53 0,23 -12,35 -34,35 -11,0 -21,-6 -28,-17l-12 -18c-11,-17 -26,-25 -45,-25 -31,0 -46,17 -46,52 0,17 12,40 38,68zm321 -48c54,-66 106,-99 154,-99 27,0 48,11 64,32 15,20 23,49 23,85 0,14 0,27 -1,36l-16 142c-2,15 -3,31 -3,48 0,33 9,49 25,49 25,0 47,-19 68,-57 5,-8 9,-11 14,-11 7,0 9,3 9,10 0,17 -10,39 -31,68 -29,39 -61,59 -97,59 -33,0 -50,-36 -50,-106 0,-13 1,-29 2,-48l10 -155c1,-13 2,-24 2,-31 0,-43 -17,-65 -50,-65 -32,0 -62,14 -89,40 -25,25 -41,62 -47,113l-26 224 -1 6c-2,15 -13,22 -34,22 -19,0 -29,-6 -29,-18l0 -4 1 -6 81 -681c2,-16 3,-26 3,-31 1,-13 -9,-19 -30,-19l-27 0c-15,0 -22,-4 -21,-11 0,-8 7,-13 21,-13 41,-2 70,-5 89,-9 11,-2 19,-4 25,-4 7,0 11,5 10,13 0,2 0,4 0,7l-49 414zm435 130l22 -138c2,-10 3,-19 3,-27 0,-15 -11,-23 -32,-23l-29 0c-16,0 -24,-3 -23,-11 0,-9 8,-14 23,-14 33,0 65,-3 95,-9 12,-2 21,-3 28,-3 7,0 11,4 11,13l-1 6 -29 154c-15,76 -22,134 -22,174 0,22 6,34 17,34 16,2 32,-14 48,-46 4,-9 9,-13 13,-13 6,0 9,4 8,12 -1,24 -15,51 -42,79 -26,29 -50,44 -70,44 -11,0 -20,-8 -27,-25 -7,-16 -10,-38 -10,-64 0,-29 5,-77 17,-143zm92 -454c3,1 6,4 9,10 6,12 10,19 11,20l12 19c3,5 5,8 5,11 0,3 -3,8 -8,13 -8,8 -18,20 -29,34 -4,6 -8,9 -12,9 -4,0 -8,-4 -11,-11 -8,-16 -15,-29 -20,-36 -4,-5 -5,-9 -5,-12 0,-4 2,-8 5,-13l15 -16c2,-2 7,-8 14,-18 6,-7 10,-10 14,-10zm254 343c25,-36 53,-64 83,-84 31,-20 61,-30 91,-30 46,0 68,31 68,93l0 21c23,-35 48,-63 76,-83 28,-21 55,-31 80,-31 25,0 45,11 60,33 15,22 22,52 22,89 0,14 0,27 -1,41l-13 178 -2 24 2 10c3,9 9,13 18,13 17,0 35,-14 53,-43 4,-6 9,-9 14,-9 7,0 10,4 10,13 0,13 -11,32 -32,58 -29,33 -58,50 -86,50 -28,0 -42,-26 -42,-78 0,-9 0,-22 1,-38l13 -178c1,-11 1,-20 1,-28 0,-58 -19,-87 -57,-87 -26,0 -50,19 -71,58 -21,39 -35,90 -43,153l-20 170c-2,11 -5,19 -10,22 -5,4 -14,6 -28,6 -18,0 -26,-6 -26,-18l1 -10 29 -248c2,-14 3,-31 3,-50 0,-26 -6,-46 -18,-62 -12,-15 -27,-22 -47,-22 -28,0 -54,18 -77,56 -24,37 -38,83 -45,137l-21 189c-2,11 -5,19 -10,22 -5,4 -14,6 -28,6 -18,0 -26,-6 -26,-18 0,-2 0,-5 1,-10l31 -267c1,-11 2,-20 2,-28 0,-37 -8,-55 -24,-57 -16,-1 -31,16 -45,51 -3,8 -6,13 -10,12 -6,0 -9,-6 -9,-17 0,-24 11,-51 31,-79 20,-29 40,-43 57,-43 29,0 44,38 44,113zm885 221c-63,84 -127,126 -193,126 -26,0 -48,-10 -64,-31 -17,-21 -25,-48 -25,-81 0,-44 10,-90 30,-140 20,-49 46,-92 78,-128 48,-53 98,-80 150,-80 19,0 39,3 61,11 8,2 14,4 19,4 11,0 24,-13 39,-39 8,-13 14,-19 19,-18 4,0 6,4 6,10 0,3 0,6 -1,10 -1,2 -3,13 -7,31l-13 61c-7,35 -15,80 -22,135 -7,54 -11,92 -11,112 0,46 7,69 21,69 8,0 17,-6 28,-18 12,-13 20,-26 26,-40 5,-12 11,-18 17,-18 6,0 9,3 9,11 0,24 -14,52 -43,85 -29,33 -53,50 -73,50 -15,0 -25,-9 -32,-25 -7,-17 -13,-49 -19,-97zm-23 -310c-38,0 -74,22 -109,67 -22,29 -41,66 -57,111 -16,45 -24,84 -24,119 0,56 24,83 72,83 30,0 61,-16 92,-50 32,-34 50,-69 54,-107 3,-21 6,-38 9,-52l10 -50c5,-28 10,-47 12,-57 3,-10 4,-19 4,-27 0,-10 -6,-18 -20,-26 -13,-7 -27,-11 -43,-11z"/>
 </g>
</svg>
